<?xml version="1.0" encoding="UTF-8" standalone="no"?>
<!-- Created with Inkscape (http://www.inkscape.org/) -->

<svg
   width="4.1396155in"
   height="3.3823731in"
   viewBox="0 0 105.14623 85.912277"
   version="1.1"
   id="svg5"
   inkscape:version="1.1.2 (0a00cf5339, 2022-02-04)"
   sodipodi:docname="fermats_principle_4.svg"
   xmlns:inkscape="http://www.inkscape.org/namespaces/inkscape"
   xmlns:sodipodi="http://sodipodi.sourceforge.net/DTD/sodipodi-0.dtd"
   xmlns="http://www.w3.org/2000/svg"
   xmlns:svg="http://www.w3.org/2000/svg">
  <sodipodi:namedview
     id="namedview7"
     pagecolor="#464646"
     bordercolor="#eeeeee"
     borderopacity="1"
     inkscape:pageshadow="0"
     inkscape:pageopacity="1"
     inkscape:pagecheckerboard="false"
     inkscape:document-units="mm"
     showgrid="false"
     units="in"
     inkscape:snap-bbox="true"
     inkscape:snap-bbox-midpoints="true"
     inkscape:snap-object-midpoints="true"
     inkscape:zoom="2.1367164"
     inkscape:cx="170.35485"
     inkscape:cy="160.76069"
     inkscape:window-width="1920"
     inkscape:window-height="1025"
     inkscape:window-x="0"
     inkscape:window-y="24"
     inkscape:window-maximized="1"
     inkscape:current-layer="layer1"
     showguides="false" />
  <defs
     id="defs2" />
  <g
     inkscape:label="Layer 1"
     inkscape:groupmode="layer"
     id="layer1"
     transform="translate(-58.89816,-36.123289)">
    <path
       style="fill:#5092dc;stroke:none;stroke-width:0.265;stroke-linecap:butt;stroke-linejoin:miter;stroke-opacity:1;fill-opacity:1;stroke-miterlimit:4;stroke-dasharray:none"
       d="m 163.49481,97.716879 c -1.6413,0 -5.18917,0.32319 -6.50798,-0.336223 -0.32479,-0.162402 -0.51443,-0.465114 -0.82945,-0.645129 -0.55721,-0.318407 -1.29986,-0.610547 -1.78171,-0.971944 -1.06152,-0.79616 -1.72675,-1.438457 -3.13351,-1.751084 -0.59835,-0.132971 -1.42779,0 -2.02757,0 -1.5544,0 -3.06812,-0.0132 -4.60813,-0.184319 -0.53948,-0.05995 -1.12861,0.106058 -1.65891,0 -1.54892,-0.309785 -2.78356,-1.310957 -4.42379,-1.105945 -0.78228,0.09777 -1.54808,0.535697 -2.30406,0.737293 -1.27307,0.33949 -2.54496,0.460817 -3.87082,0.460817 -0.18878,0 -0.91428,0.09584 -1.10594,0 -0.65976,-0.32989 -1.07263,-0.96366 -1.65893,-1.382443 -0.5988,-0.427704 -1.32977,-0.814035 -2.01169,-1.098002 -0.19194,-0.07993 -0.59732,0 -0.80808,0 -1.69031,0 -2.98257,-0.54038 -4.4295,-0.431128 0,0 -1.77577,-1.037336 -1.88741,-1.17688 -0.55595,-0.694926 -3.52794,-2.474886 -4.09296,-2.616147 -1.15797,-0.289499 -2.72357,0.08003 -3.87082,0.184322 -0.68257,0.06204 -1.40968,0 -2.0983,0 -0.80392,0 -1.61614,0.0497 -2.39622,-0.184322 -0.68376,-0.205129 -1.30319,-0.629676 -2.02757,-0.737293 -2.05157,-0.304787 -4.23514,0.293373 -6.288668,0 -0.613952,-0.08771 -0.992721,-0.29681 -1.566761,-0.460817 -0.198776,-0.05679 -0.441757,0.04068 -0.645136,0 -0.560518,-0.112106 -0.88255,-0.418036 -1.275977,-0.695939 -0.292794,-0.206819 -1.724679,0 -2.027569,0 -1.827289,0 -3.921892,0.266282 -5.714066,-0.09216 -0.367601,-0.07352 -1.413983,-0.542557 -1.672796,-0.801348 -0.321643,-0.321617 -0.838025,-1.190924 -1.343125,-1.403927 -0.82585,-0.348263 -2.053398,0.268195 -2.857034,0.368641 -0.412411,0.05155 -3.104634,0.01529 -3.119374,0 -0.236435,-0.24506 -0.42437,-0.578165 -0.645138,-0.829458 -0.194473,-0.221363 -1.344898,-0.15163 -1.543296,-0.0855 -0.360604,0.120201 -0.673053,0.467784 -1.01379,0.552974 -0.355225,0.08881 -1.114565,0.07201 -1.474597,0 -0.783488,-0.156702 0.262604,-0.0046 -0.552972,-0.276487 -0.573796,-0.191262 -0.958611,-0.03079 -1.566757,-0.368651 -0.368287,-0.204603 -0.724401,-0.584679 -1.10595,-0.737304 -0.245804,-0.09833 -0.752897,0 -1.013785,0 -0.629596,0 -1.309949,-0.0695 -1.935409,0 -1.159253,0.128812 -2.593143,0.572839 -3.778652,0.276487 -0.283922,-0.07098 -0.424401,-0.395306 -0.645138,-0.552972 -0.38262,-0.273296 -0.892371,-0.396438 -1.290271,-0.645128 -0.562668,-0.351671 -0.97762,-1.068485 -1.566757,-1.382442 -0.603291,-0.321498 -1.784709,0.394475 -2.344036,0 L 59.228889,36.454018 H 163.71367 l -0.21886,61.262861"
       id="path19091"
       sodipodi:nodetypes="cssssssssssssssssssssssssssssscssssssssssssssc" />
    <path
       style="fill:#ffe680;stroke:none;stroke-width:0.264583px;stroke-linecap:butt;stroke-linejoin:miter;stroke-opacity:1"
       d="m 58.974406,79.344421 c 0.559327,0.394475 1.740745,-0.321498 2.344036,0 0.589137,0.313957 1.004089,1.030771 1.566757,1.382442 0.3979,0.24869 0.907651,0.371832 1.290271,0.645128 0.220737,0.157666 0.361216,0.481997 0.645138,0.552972 1.185509,0.296352 2.619399,-0.147675 3.778652,-0.276487 0.62546,-0.0695 1.305813,0 1.935409,0 0.260888,0 0.767981,-0.09833 1.013785,0 0.381549,0.152625 0.737663,0.532701 1.10595,0.737304 0.608146,0.337857 0.992961,0.177389 1.566757,0.368651 0.815576,0.271854 -0.230516,0.119785 0.552972,0.276487 0.360032,0.07201 1.119372,0.08881 1.474597,0 0.340737,-0.08519 0.653186,-0.432773 1.01379,-0.552974 0.198398,-0.06613 1.348823,-0.135863 1.543296,0.0855 0.220768,0.251293 0.408703,0.584398 0.645138,0.829458 0.01474,0.01529 2.706963,0.05155 3.119374,0 0.803636,-0.100446 2.031184,-0.716904 2.857034,-0.368641 0.5051,0.213003 1.021482,1.08231 1.343125,1.403927 0.258813,0.258791 1.305195,0.727826 1.672796,0.801348 1.792174,0.358442 3.886777,0.09216 5.714066,0.09216 0.30289,0 1.734775,-0.206819 2.027569,0 0.393427,0.277903 0.715459,0.583833 1.275977,0.695939 0.203379,0.04068 0.44636,-0.05679 0.645136,0 0.57404,0.164007 0.952809,0.373108 1.566761,0.460817 2.053528,0.293373 4.237098,-0.304787 6.288668,0 0.72438,0.107617 1.34381,0.532164 2.02757,0.737293 0.78008,0.234027 1.5923,0.184322 2.39622,0.184322 0.68862,0 1.41573,0.06204 2.0983,0 1.14725,-0.104288 2.71285,-0.473821 3.87082,-0.184322 0.56502,0.141261 3.53701,1.921221 4.09296,2.616147 0.11164,0.139544 1.88741,1.17688 1.88741,1.17688 1.44693,-0.109252 2.73919,0.431128 4.4295,0.431128 0.21076,0 0.61614,-0.07993 0.80808,0 0.68192,0.283967 1.41289,0.670298 2.01169,1.098002 0.5863,0.418783 0.99917,1.052553 1.65893,1.382443 0.19166,0.09584 0.91716,0 1.10594,0 1.32586,0 2.59775,-0.121327 3.87082,-0.460817 0.75598,-0.201596 1.52178,-0.639519 2.30406,-0.737293 1.64023,-0.205012 2.87487,0.79616 4.42379,1.105945 0.5303,0.106058 1.11943,-0.05995 1.65891,0 1.54001,0.171117 3.05373,0.184319 4.60813,0.184319 0.59978,0 1.42922,-0.132971 2.02757,0 1.40676,0.312627 2.07199,0.954924 3.13351,1.751084 0.48185,0.361397 1.2245,0.653537 1.78171,0.971944 0.31502,0.180015 0.50466,0.482727 0.82945,0.645129 1.31881,0.659413 4.86668,0.336223 6.50798,0.336223 l 0.21886,23.987951 H 59.228889 Z"
       id="path17750"
       sodipodi:nodetypes="cssssssssssssssssssssssssssssscssssssssssssssc" />
    <path
       style="fill:none;stroke:#dc5050;stroke-width:0.79375;stroke-linecap:round;stroke-linejoin:round;stroke-miterlimit:4;stroke-dasharray:none;stroke-opacity:1"
       d="M 82.888975,102.30985 122.33474,91.008772 146.38892,49.393199"
       id="path3279"
       sodipodi:nodetypes="ccc" />
    <circle
       style="fill:#000000;fill-opacity:1;stroke:#000000;stroke-width:0.374848"
       id="path1328"
       cx="82.888977"
       cy="102.30985"
       r="1.0096071" />
    <circle
       style="fill:#000000;fill-opacity:1;stroke:#000000;stroke-width:0.374848"
       id="circle1432"
       cx="146.38898"
       cy="49.3932"
       r="1.0096071" />
    <text
       xml:space="preserve"
       style="font-style:normal;font-weight:normal;font-size:8.46667px;line-height:1.25;font-family:sans-serif;fill:#000000;fill-opacity:1;stroke:none;stroke-width:0.264583"
       x="74.902794"
       y="112.43583"
       id="text4033"><tspan
         sodipodi:role="line"
         id="tspan4031"
         style="font-style:normal;font-variant:normal;font-weight:normal;font-stretch:normal;font-size:8.46667px;font-family:'DejaVu Math TeX Gyre';-inkscape-font-specification:'DejaVu Math TeX Gyre';stroke-width:0.264583"
         x="74.902794"
         y="112.43583">A</tspan></text>
    <text
       xml:space="preserve"
       style="font-style:normal;font-weight:normal;font-size:8.46667px;line-height:1.25;font-family:sans-serif;fill:#000000;fill-opacity:1;stroke:none;stroke-width:0.264583"
       x="140.37778"
       y="46.251163"
       id="text10829"><tspan
         sodipodi:role="line"
         id="tspan10827"
         style="font-style:normal;font-variant:normal;font-weight:normal;font-stretch:normal;font-size:8.46667px;font-family:'DejaVu Math TeX Gyre';-inkscape-font-specification:'DejaVu Math TeX Gyre';stroke-width:0.264583"
         x="140.37778"
         y="46.251163">B</tspan></text>
    <path
       style="fill:none;stroke:#000000;stroke-width:0.264583px;stroke-linecap:butt;stroke-linejoin:miter;stroke-opacity:1"
       d="m 58.974406,79.344421 c 0.559327,0.394475 1.740745,-0.321498 2.344036,0 0.589137,0.313957 1.004089,1.030771 1.566757,1.382442 0.3979,0.24869 0.907651,0.371832 1.290271,0.645128 0.220737,0.157666 0.361216,0.481997 0.645138,0.552972 1.185509,0.296352 2.619399,-0.147675 3.778652,-0.276487 0.62546,-0.0695 1.305813,0 1.935409,0 0.260888,0 0.767981,-0.09833 1.013785,0 0.381549,0.152625 0.737663,0.532701 1.10595,0.737304 0.608146,0.337857 0.992961,0.177389 1.566757,0.368651 0.815576,0.271854 -0.230516,0.119785 0.552972,0.276487 0.360032,0.07201 1.119372,0.08881 1.474597,0 0.340737,-0.08519 0.653186,-0.432773 1.01379,-0.552974 0.198398,-0.06613 1.348823,-0.135863 1.543296,0.0855 0.220768,0.251293 0.408703,0.584398 0.645138,0.829458 0.01474,0.01529 2.706963,0.05155 3.119374,0 0.803636,-0.100446 2.031184,-0.716904 2.857034,-0.368641 0.5051,0.213003 1.021482,1.08231 1.343125,1.403927 0.258813,0.258791 1.305195,0.727826 1.672796,0.801348 1.792174,0.358442 3.886777,0.09216 5.714066,0.09216 0.30289,0 1.734775,-0.206819 2.027569,0 0.393427,0.277903 0.715459,0.583833 1.275977,0.695939 0.203379,0.04068 0.44636,-0.05679 0.645136,0 0.57404,0.164007 0.952809,0.373108 1.566761,0.460817 2.053528,0.293373 4.237098,-0.304787 6.288668,0 0.72438,0.107617 1.34381,0.532164 2.02757,0.737293 0.78008,0.234027 1.5923,0.184322 2.39622,0.184322 0.68862,0 1.41573,0.06204 2.0983,0 1.14725,-0.104288 2.71285,-0.473821 3.87082,-0.184322 0.56502,0.141261 3.53701,1.921221 4.09296,2.616147 0.11164,0.139544 1.88741,1.17688 1.88741,1.17688 1.44693,-0.109252 2.73919,0.431128 4.4295,0.431128 0.21076,0 0.61614,-0.07993 0.80808,0 0.68192,0.283967 1.41289,0.670298 2.01169,1.098002 0.5863,0.418783 0.99917,1.052553 1.65893,1.382443 0.19166,0.09584 0.91716,0 1.10594,0 1.32586,0 2.59775,-0.121327 3.87082,-0.460817 0.75598,-0.201596 1.52178,-0.639519 2.30406,-0.737293 1.64023,-0.205012 2.87487,0.79616 4.42379,1.105945 0.5303,0.106058 1.11943,-0.05995 1.65891,0 1.54001,0.171117 3.05373,0.184319 4.60813,0.184319 0.59978,0 1.42922,-0.132971 2.02757,0 1.40676,0.312627 2.07199,0.954924 3.13351,1.751084 0.48185,0.361397 1.2245,0.653537 1.78171,0.971944 0.31502,0.180015 0.50466,0.482727 0.82945,0.645129 1.31881,0.659413 4.86668,0.336223 6.50798,0.336223"
       id="path18331"
       sodipodi:nodetypes="cssssssssssssssssssssssssssssscssssssssssssssc" />
    <rect
       style="fill:none;fill-opacity:1;stroke:#000000;stroke-width:0.661458"
       id="rect846"
       width="104.48478"
       height="85.250816"
       x="59.228889"
       y="36.454018" />
    <text
       xml:space="preserve"
       style="font-style:normal;font-weight:normal;font-size:4.93889px;line-height:1.25;font-family:sans-serif;fill:#000000;fill-opacity:1;stroke:none;stroke-width:0.264583"
       x="68.837173"
       y="45.078129"
       id="text19398"><tspan
         sodipodi:role="line"
         id="tspan19396"
         style="font-style:normal;font-variant:normal;font-weight:normal;font-stretch:normal;font-size:4.93889px;font-family:'DejaVu Math TeX Gyre';-inkscape-font-specification:'DejaVu Math TeX Gyre';stroke-width:0.264583"
         x="68.837173"
         y="45.078129">water</tspan></text>
    <text
       xml:space="preserve"
       style="font-style:normal;font-weight:normal;font-size:4.93889px;line-height:1.25;font-family:sans-serif;fill:#000000;fill-opacity:1;stroke:none;stroke-width:0.264583"
       x="142.92049"
       y="119.16145"
       id="text20246"><tspan
         sodipodi:role="line"
         id="tspan20244"
         style="font-style:normal;font-variant:normal;font-weight:normal;font-stretch:normal;font-size:4.93889px;font-family:'DejaVu Math TeX Gyre';-inkscape-font-specification:'DejaVu Math TeX Gyre';stroke-width:0.264583"
         x="142.92049"
         y="119.16145">sand</tspan></text>
  </g>
</svg>
