<?xml version="1.0" encoding="UTF-8" standalone="no"?>
<!-- Created with Inkscape (http://www.inkscape.org/) -->

<svg
   width="228.74614mm"
   height="108.34599mm"
   viewBox="0 0 228.74614 108.34599"
   version="1.1"
   id="svg5"
   xml:space="preserve"
   inkscape:version="1.2.2 (1:1.2.2+202212051550+b0a8486541)"
   sodipodi:docname="SED-Vega.svg"
   xmlns:inkscape="http://www.inkscape.org/namespaces/inkscape"
   xmlns:sodipodi="http://sodipodi.sourceforge.net/DTD/sodipodi-0.dtd"
   xmlns="http://www.w3.org/2000/svg"
   xmlns:svg="http://www.w3.org/2000/svg"><sodipodi:namedview
     id="namedview7"
     pagecolor="#ffffff"
     bordercolor="#666666"
     borderopacity="1.0"
     inkscape:showpageshadow="2"
     inkscape:pageopacity="0.0"
     inkscape:pagecheckerboard="0"
     inkscape:deskcolor="#d1d1d1"
     inkscape:document-units="mm"
     showgrid="false"
     inkscape:zoom="0.84096521"
     inkscape:cx="479.80582"
     inkscape:cy="313.33044"
     inkscape:window-width="1920"
     inkscape:window-height="1035"
     inkscape:window-x="1920"
     inkscape:window-y="20"
     inkscape:window-maximized="1"
     inkscape:current-layer="layer1" /><defs
     id="defs2"><clipPath
       clipPathUnits="userSpaceOnUse"
       id="clipPath912"><rect
         style="opacity:1;fill:#ff0000;stroke-width:0.396878;stroke-linecap:square"
         id="rect914"
         width="166.50795"
         height="83.64489"
         x="20.855364"
         y="121.79158"
         rx="0.49735579"
         ry="0.18898819" /></clipPath></defs><g
     inkscape:label="Layer 1"
     inkscape:groupmode="layer"
     id="layer1"
     transform="translate(-228.32564,-0.80544841)"><rect
       style="opacity:1;fill:#ffffff;stroke:none;stroke-width:0.396875;stroke-linecap:square"
       id="rect2834"
       width="228.74614"
       height="108.34599"
       x="228.32564"
       y="0.80544841"
       rx="0.49735576"
       ry="0.18898819" /><path
       style="fill:#0000ff;stroke-width:1"
       d="m 412.91391,86.303463 c -0.0766,-0.07288 -1.69525,0.06609 -4.11953,-0.147657 -0.70813,-0.06243 -4.52571,-0.80222 -4.61705,-0.783689 -0.20712,0.04202 -1.16121,0.403346 -1.51373,0.536196 -0.35251,0.13288 -0.88288,0.15117 -1.1786,0.0406 -0.29571,-0.11053 -1.87705,-0.28539 -3.51408,-0.38857 -2.25915,-0.14239 -3.07491,-0.10587 -3.38511,0.15157 -0.33342,0.27672 -0.44905,0.27387 -0.62786,-0.0155 -0.29065,-0.47028 -4.09699,-0.71955 -4.60094,-0.30131 -0.27407,0.22746 -0.44038,0.20399 -0.69054,-0.0974 -0.36719,-0.44243 -2.30846,-0.49374 -2.84216,-0.0751 -0.21714,0.17032 -0.46234,0.11464 -0.7465,-0.16952 -0.46265,-0.46265 -1.97285,-0.58403 -1.97285,-0.15857 0,0.41104 -0.71917,0.31141 -0.88575,-0.1227 -0.11983,-0.31227 -0.30577,-0.33251 -0.95988,-0.10448 -0.62464,0.21775 -0.91118,0.20033 -1.24564,-0.0757 -0.3398,-0.28047 -0.45861,-0.28653 -0.54568,-0.0278 -0.12439,0.36957 -0.86097,0.45865 -0.86097,0.10412 0,-0.12463 -0.32742,-0.22227 -0.7276,-0.21698 -0.99001,0.0131 -5.06995,-0.3083 -5.88698,-0.46376 -0.36381,-0.0692 -1.37584,-0.19 -2.24896,-0.2684 -0.87313,-0.0784 -2.48047,-0.26021 -3.57188,-0.40404 -10.42605,-1.37396 -12.72173,-1.60219 -13.25345,-1.31763 -0.4514,0.24159 -0.66111,0.20024 -1.12516,-0.22184 -0.33987,-0.30914 -1.31878,-0.64721 -2.42243,-0.8366 -3.11866,-0.53519 -7.00742,-1.32905 -9.87973,-2.01688 -1.50479,-0.36035 -3.12056,-0.62928 -3.5906,-0.59763 -0.50906,0.0343 -1.24218,-0.18196 -1.81308,-0.53479 -0.59826,-0.36975 -1.52536,-0.63364 -2.46697,-0.70221 -1.06511,-0.0776 -1.68408,-0.27478 -2.10578,-0.67095 -0.93019,-0.87387 -1.79641,-0.60885 -1.99337,0.60989 -0.0885,0.54731 -0.23021,1.06449 -0.31501,1.14929 -0.15824,0.15824 -0.7178,-1.58778 -0.72044,-2.24805 -8e-4,-0.20252 -0.36625,-0.71682 -0.81208,-1.14288 -0.5943,-0.56794 -0.89958,-0.70083 -1.14401,-0.49796 -0.23418,0.19435 -0.426,0.18409 -0.6446,-0.0345 -0.49912,-0.49912 -0.89903,0.12589 -1.04367,1.63114 -0.0707,0.73617 -0.21764,1.33849 -0.32646,1.33849 -0.22199,0 -0.52858,-1.3236 -0.52858,-2.28203 0,-0.34562 -0.13828,-0.59862 -0.3073,-0.56224 -0.16902,0.0364 -0.3841,-0.23151 -0.47796,-0.59532 l -0.17066,-0.66145 -0.16071,0.6029 c -0.0884,0.3316 -0.31979,0.56973 -0.51423,0.52917 -0.22551,-0.047 -0.38353,0.23762 -0.43642,0.78615 -0.12648,1.31181 -0.50787,1.02561 -0.70515,-0.52916 -0.24477,-1.92898 -0.38108,-2.31511 -0.81727,-2.31511 -0.27786,0 -0.37905,0.34898 -0.37905,1.3073 0,0.71902 -0.11557,1.37874 -0.25682,1.46603 -0.26392,0.16311 -0.38462,-0.18429 -0.77974,-2.24416 l -0.22837,-1.19062 -0.029,1.22369 c -0.0379,1.59767 -0.3008,2.87735 -0.59123,2.87735 -0.12733,0 -0.24773,-0.86321 -0.26754,-1.91823 -0.0198,-1.05503 -0.0817,-1.62058 -0.1375,-1.25677 -0.0558,0.3638 -0.1693,1.07633 -0.25219,1.5834 l -0.15071,0.92194 -0.36387,-0.65736 c -0.22944,-0.41451 -0.37505,-0.51074 -0.39413,-0.26048 -0.0166,0.21828 -0.14985,0.0695 -0.29601,-0.33073 -0.14616,-0.40018 -0.38847,-0.72761 -0.53847,-0.72761 -0.15001,0 -0.71078,-0.49361 -1.24617,-1.09692 l -0.97343,-1.09692 -0.59012,0.31583 c -0.64428,0.3448 -1.09791,0.0799 -1.4486,-0.84591 -0.099,-0.26124 -0.57802,-0.64131 -1.06459,-0.84461 -0.48658,-0.20331 -1.03983,-0.55659 -1.22945,-0.78507 -0.2628,-0.31665 -0.43079,-0.34404 -0.70655,-0.11518 -0.28068,0.23295 -0.36177,0.20403 -0.36177,-0.12903 0,-0.2361 -0.16945,-0.42927 -0.37657,-0.42927 -0.20712,0 -0.73032,-0.29766 -1.16267,-0.66146 -0.43236,-0.3638 -0.89929,-0.66146 -1.03763,-0.66146 -0.13834,0 -0.47285,-0.24455 -0.74334,-0.54345 -0.3359,-0.37116 -0.74733,-0.51795 -1.29778,-0.46302 l -0.80596,0.0804 -0.0785,-0.79375 c -0.0559,-0.56557 -0.34011,-0.96488 -0.98848,-1.38906 -0.50048,-0.32742 -1.02477,-0.59531 -1.16511,-0.59531 -0.14033,0 -0.35035,-0.14954 -0.46673,-0.3323 -0.11637,-0.18276 -0.64641,-0.65618 -1.17787,-1.05204 l -0.9663,-0.71976 -0.15818,0.41223 c -0.087,0.22673 -0.15873,1.0871 -0.15939,1.91194 -5.3e-4,0.82485 -0.0877,2.86894 -0.1934,4.54243 l -0.19219,3.04271 -0.17476,-1.5875 c -0.0961,-0.87313 -0.18769,-3.09995 -0.20348,-4.94849 -0.0167,-1.94711 -0.16155,-3.67231 -0.34446,-4.10105 -0.45754,-1.07239 -1.01962,-1.66609 -1.57735,-1.66609 -0.30469,0 -0.48816,-0.19059 -0.48816,-0.50712 0,-0.27891 -0.0942,-0.5468 -0.2094,-0.59531 -0.11516,-0.0485 -0.56165,-0.56208 -0.99218,-1.14127 -1.30707,-1.75838 -1.54327,-1.98963 -2.03222,-1.98963 -0.36117,0 -0.47037,-0.21498 -0.47037,-0.92604 0,-0.56356 -0.12946,-0.9267 -0.33073,-0.92772 -0.32119,-0.002 -0.82694,-0.69541 -1.91822,-2.63142 -0.29105,-0.51633 -0.678,-1.03399 -0.8599,-1.15037 -0.1819,-0.11637 -0.33073,-0.33532 -0.33073,-0.48656 0,-0.15124 -0.44648,-0.74451 -0.99219,-1.31837 -0.5457,-0.57385 -1.05558,-1.36693 -1.13305,-1.76239 -0.0968,-0.49427 -0.28291,-0.69471 -0.59532,-0.64126 -0.36285,0.0621 -0.45517,-0.12456 -0.45805,-0.92604 -0.005,-1.51546 -0.25948,-2.19442 -0.821,-2.19442 -0.31687,0 -0.49831,-0.18699 -0.49831,-0.51355 0,-0.28245 -0.10244,-0.57686 -0.22764,-0.65424 -0.35763,-0.22103 -0.56604,2.67888 -0.56685,7.88733 -10e-4,6.60044 -0.30727,14.77693 -0.54398,14.52399 -0.10764,-0.11503 -0.24455,-5.98368 -0.30424,-13.04144 -0.0772,-9.12673 -0.19772,-12.9851 -0.41744,-13.36146 -0.16991,-0.29104 -0.43701,-1.04147 -0.59355,-1.6676 -0.15655,-0.62614 -0.50388,-1.35769 -0.77185,-1.62567 -0.26798,-0.26797 -0.57022,-0.97842 -0.67165,-1.57878 -0.10143,-0.60036 -0.35214,-1.25929 -0.55715,-1.4643 -0.205,-0.205 -0.3811,-0.70866 -0.39133,-1.11923 l -0.0186,-0.7465 -0.22739,0.52916 c -0.12507,0.29104 -0.23576,4.94516 -0.24599,10.34248 -0.0209,11.05181 -0.27002,19.5485 -0.56387,19.23548 -0.10803,-0.11506 -0.2494,-7.71015 -0.31416,-16.87796 l -0.11775,-16.66875 -0.40966,-0.74731 c -0.22531,-0.41102 -0.47413,-0.64299 -0.55293,-0.51548 -0.0788,0.1275 -0.22895,7.75637 -0.33367,16.95304 -0.10473,9.19666 -0.29088,16.72121 -0.41369,16.72121 -0.12281,0 -0.23814,-5.68523 -0.25631,-12.63385 -0.0182,-6.94862 -0.11596,-14.77698 -0.21733,-17.39636 -0.13327,-3.44372 -0.20703,-0.29331 -0.26637,11.37709 -0.0451,8.87677 -0.16487,17.5088 -0.26609,19.18229 l -0.18403,3.04271 -0.10324,-4.23334 -0.10325,-4.23333 -0.0827,3.37344 c -0.0477,1.94648 -0.19126,3.37343 -0.33937,3.37343 -0.14117,0 -0.25668,0.30758 -0.25668,0.68351 0,0.4279 -0.12323,0.64243 -0.32954,0.57366 -0.40185,-0.13395 -0.96506,1.838 -0.9817,3.43717 -0.0176,1.69504 -0.76746,2.41755 -2.49136,2.40059 -2.51613,-0.0248 -2.54791,-0.0148 -2.72189,0.85512 -0.187,0.93502 -0.83879,0.97328 -1.28637,0.0755 l -0.28353,-0.5687 -0.29481,0.70334 c -0.16214,0.38683 -0.37299,0.97123 -0.46855,1.29865 -0.0956,0.32742 -0.28478,0.59531 -0.42049,0.59531 -0.13572,0 -0.24676,0.59531 -0.24676,1.32292 0,1.56255 -0.33573,1.727 -0.68094,0.33354 -0.31888,-1.28721 -1.03753,-1.46464 -1.26785,-0.31302 -0.0923,0.46166 -0.16787,1.60542 -0.16787,2.54171 0,1.89077 -0.50821,2.13262 -0.55986,0.26642 -0.0169,-0.60987 -0.0854,-0.89904 -0.15232,-0.6426 -0.0669,0.25644 -0.23167,0.39824 -0.36618,0.31511 -0.13451,-0.0831 -0.24456,0.0345 -0.24456,0.26135 0,0.22687 -0.17859,0.41249 -0.39687,0.41249 -0.25997,0 -0.39688,-0.2602 -0.39688,-0.75427 0,-0.41485 -0.13204,-1.13303 -0.29342,-1.59597 -0.22859,-0.65573 -0.37082,-0.77746 -0.64375,-0.55094 -0.26383,0.21896 -0.48537,0.15572 -0.89721,-0.25612 -0.43124,-0.43124 -0.54687,-0.88252 -0.54687,-2.13437 v -1.5875 h 0.52917 c 0.55084,0 0.63606,0.34929 0.58099,2.38125 l -0.0251,0.92604 0.33679,-1.0425 c 0.35991,-1.11402 0.52411,-1.05073 0.81701,0.3149 0.18573,0.86598 0.67155,1.20094 0.67155,0.46302 0,-0.52656 0.25894,-0.50174 0.69002,0.0661 l 0.35148,0.46303 0.008,-0.56701 c 0.005,-0.31185 0.18701,-0.63554 0.40529,-0.7193 0.24911,-0.0956 0.39688,-0.50019 0.39688,-1.08664 0,-1.11102 0.39236,-1.23293 0.6654,-0.20674 0.12432,0.46727 0.23675,0.5856 0.31422,0.33073 0.0663,-0.21828 0.16897,-0.55084 0.22804,-0.73902 0.0812,-0.25864 0.2375,-0.27251 0.6405,-0.0568 l 0.53309,0.2853 v -0.77066 c 0,-0.80354 0.58717,-1.52353 1.02287,-1.25426 0.428,0.26453 1.12212,-0.1504 1.37815,-0.82383 0.28132,-0.73992 0.77398,-0.58049 0.77398,0.25048 v 0.56412 l 0.35649,-0.48752 c 0.25772,-0.35247 0.41085,-0.39957 0.55272,-0.17002 0.14421,0.23334 0.28954,0.24008 0.5482,0.0254 0.26596,-0.22073 0.42558,-0.17538 0.65326,0.18559 0.22163,0.3514 0.33901,0.38733 0.44396,0.13592 0.10869,-0.26037 0.23001,-0.26928 0.50942,-0.0374 0.29269,0.24291 0.42803,0.15162 0.6701,-0.45197 0.50113,-1.24955 0.71655,-4.68878 1.04172,-16.63137 0.17038,-6.25739 0.41566,-11.49019 0.54508,-11.62843 0.12941,-0.13824 0.2353,-2.43019 0.2353,-5.09322 0,-3.05153 0.0978,-4.84188 0.26458,-4.84188 0.15564,0 0.26459,-0.92604 0.26459,-2.24895 0,-2.52893 0.45078,-3.07721 0.59822,-0.72761 0.0525,0.83675 0.11798,0.1819 0.1455,-1.45521 0.047,-2.79752 0.31509,-3.69631 0.72102,-2.41737 0.0976,0.30756 0.26672,1.88514 0.37579,3.50573 l 0.19831,2.94654 0.0389,-2.68367 c 0.0378,-2.60511 0.16903,-3.00487 0.98659,-3.00487 0.0609,0 0.11066,0.60234 0.11066,1.33853 0,0.73619 0.10552,1.27331 0.2345,1.1936 0.38393,-0.23728 0.5497,0.86945 0.59167,3.95016 0.0218,1.60073 0.0853,2.61276 0.14111,2.24896 0.37192,-2.42442 0.37419,-2.43065 0.76814,-2.1037 0.20968,0.17403 0.38124,0.48042 0.38124,0.68089 0,0.20046 0.10358,0.36447 0.23016,0.36447 0.12659,0 0.37646,0.74414 0.55526,1.65365 0.1788,0.9095 0.40266,1.71327 0.49745,1.78614 0.32974,0.25349 1.09838,1.89771 1.09838,2.34957 0,0.25015 0.10943,0.56792 0.24318,0.70616 0.37494,0.38756 0.81174,3.17116 0.84628,5.39318 l 0.0311,2.00193 0.20962,-1.24347 c 0.33088,-1.9627 0.87026,-2.43094 1.17933,-1.02377 0.16422,0.74769 0.84381,1.55795 1.16916,1.39396 0.0868,-0.0437 0.25995,0.46228 0.38483,1.12448 0.12489,0.6622 0.33325,1.20401 0.46302,1.20401 0.12978,0 0.23596,0.16401 0.23596,0.36448 0,0.20046 0.17677,0.51117 0.39281,0.69047 0.21605,0.1793 0.6597,0.86041 0.98591,1.51357 0.3262,0.65316 0.86381,1.47967 1.19469,1.83669 0.33087,0.35702 0.60159,0.76179 0.60159,0.89947 0,0.28809 1.75844,2.79506 2.4474,3.48922 0.25466,0.25658 0.46317,0.61534 0.46334,0.79724 2.7e-4,0.35341 0.70039,1.24127 2.38935,3.03044 0.57745,0.61171 1.04991,1.2883 1.04991,1.50352 0,0.21523 0.23961,0.46737 0.53246,0.56031 0.70137,0.22261 1.84879,1.93356 1.84879,2.75678 v 0.65061 l 0.35862,-0.49043 c 0.41622,-0.56921 0.65298,-0.48722 2.28722,0.79212 0.65484,0.51263 1.53991,1.13773 1.96682,1.3891 0.42691,0.25137 1.24001,0.90352 1.8069,1.44922 0.56688,0.5457 1.16071,0.99219 1.31963,0.99219 0.15892,0 0.52407,0.20836 0.81145,0.46302 0.38299,0.33938 0.5534,0.37471 0.63819,0.13229 0.17381,-0.49689 0.52143,-0.39809 0.67575,0.19206 0.0752,0.28754 0.47604,0.66719 0.89076,0.84367 0.41472,0.17648 1.0517,0.58449 1.4155,0.90668 0.3638,0.3222 0.89539,0.62799 1.18132,0.67953 0.28592,0.0515 0.79194,0.49744 1.12448,0.99089 0.33254,0.49346 0.60461,0.83171 0.60461,0.75167 0,-0.08 0.56555,0.0267 1.25678,0.23709 0.80317,0.24452 1.71037,0.32171 2.51354,0.21386 0.95765,-0.12859 1.25877,-0.0841 1.26518,0.1868 0.005,0.2326 0.14042,0.18114 0.39012,-0.14878 l 0.3817,-0.50435 0.22829,0.61713 0.22829,0.61712 0.15057,-0.5758 c 0.24108,-0.92187 0.64453,-0.66774 0.87107,0.54868 0.15689,0.84241 0.23689,0.97109 0.31893,0.51299 0.0602,-0.33632 0.28037,-0.67706 0.48922,-0.75721 0.50157,-0.19247 1.16673,0.38004 1.16673,1.00422 0,0.27322 0.11906,0.49677 0.26458,0.49677 0.14553,0 0.26459,-0.23812 0.26459,-0.52917 0,-0.29104 0.11906,-0.52916 0.26458,-0.52916 0.14552,0 0.26458,0.24515 0.26458,0.54478 0,0.29963 0.11907,0.4712 0.26459,0.38126 0.14552,-0.0899 0.26458,-0.39462 0.26458,-0.67708 0,-0.28245 0.11906,-0.51355 0.26458,-0.51355 0.14553,0 0.26855,0.32743 0.27339,0.72761 0.0115,0.95195 0.92667,2.08416 1.38176,1.70947 0.50149,-0.41289 2.10557,-0.4612 2.79912,-0.0843 0.33979,0.18466 0.83001,0.80971 1.08936,1.389 l 0.47156,1.05326 0.14276,-0.54591 c 0.18481,-0.7067 1.36433,-0.61209 2.50626,0.20104 0.44561,0.3173 1.07566,0.57691 1.40011,0.57691 0.91025,0 2.71292,0.5738 3.26047,1.03783 0.27088,0.22956 0.98525,0.4281 1.5875,0.44121 0.60226,0.0131 1.63079,0.14973 2.28563,0.3036 4.65032,1.09266 7.7198,1.72277 10.71563,2.19975 1.33143,0.21198 2.32825,0.52575 2.68701,0.8458 0.46925,0.41862 0.67148,0.45469 1.14085,0.20349 0.44573,-0.23855 1.36251,-0.18663 4.19215,0.23741 3.97898,0.59626 9.47018,1.25362 12.3529,1.47878 1.01865,0.0796 2.32834,0.20335 2.91042,0.27509 2.50258,0.30842 4.08391,0.44082 5.82088,0.48738 1.01868,0.0273 2.01132,0.14802 2.20587,0.26826 0.19589,0.12107 0.46759,0.10477 0.60889,-0.0365 0.31406,-0.31407 1.55082,-0.10779 1.55082,0.25867 0,0.15426 0.1615,0.1321 0.38418,-0.0527 0.21498,-0.17843 0.63169,-0.24029 0.94621,-0.14046 0.30912,0.0981 1.53522,0.22324 2.72468,0.27807 1.18945,0.0548 3.05561,0.14709 4.14701,0.20504 1.09141,0.0579 3.77032,0.18702 5.95313,0.28684 2.18281,0.0998 4.28898,0.30577 4.68038,0.45767 0.3914,0.1519 0.83174,0.20196 0.97853,0.11124 7.64553,-2.480216 20.89164,5.10359 10.524,0.7291 z"
       id="path2550"
       sodipodi:nodetypes="csssssssssssssssssssssssssssssssssssssssscsssssssscssssscssssscssssssssssscssssscscscssssssssscsssssscsssssssssssscsssscsssssssscccsssssssscssssssssssssssssscsscssssccsssssscsssscsssssssssssssssscsssssssssssssscsssssssssssssssscssssssssssssssscscccsssssssssssssssscssssssssssssssssssssssccc" /><path
       style="fill:#000000;stroke-width:1"
       d="m 254.31983,47.483573 0.067,-42.0026057 h 83.34375 83.34375 l 0.067,42.0026057 0.0669,42.002602 h -83.47769 -83.47767 z m 9.72425,41.076562 c 0,-0.3638 0.11907,-0.66146 0.26459,-0.66146 0.14552,0 0.26458,0.29766 0.26458,0.66146 v 0.66146 h 4.36563 4.36562 l 0.0396,-0.7276 0.0396,-0.72761 0.11022,0.72761 0.11023,0.7276 h 4.34805 4.34805 v -1.32292 c 0,-0.7276 0.11906,-1.32291 0.26458,-1.32291 0.14552,0 0.26459,0.59531 0.26459,1.32291 v 1.32292 h 4.36562 4.36563 v -0.66146 c 0,-0.3638 0.11906,-0.66146 0.26458,-0.66146 0.14552,0 0.26458,0.29766 0.26458,0.66146 v 0.66146 h 4.36563 4.36562 l 0.0396,-0.7276 0.0396,-0.72761 0.11023,0.72761 0.11022,0.7276 h 4.34805 4.34805 v -0.66146 c 0,-0.3638 0.11906,-0.66146 0.26459,-0.66146 0.14552,0 0.26458,0.29766 0.26458,0.66146 v 0.66146 h 4.36562 4.36563 v -0.66146 c 0,-0.3638 0.11906,-0.66146 0.26458,-0.66146 0.14552,0 0.26459,0.29766 0.26459,0.66146 v 0.66146 h 4.36562 4.36563 l 0.05,-1.52135 0.05,-1.52136 0.0957,1.52769 0.0957,1.52769 4.40669,-0.0725 4.4067,-0.0725 0.18374,-0.66146 0.18375,-0.66146 0.0264,0.72761 0.0264,0.7276 h 4.36563 4.36562 v -0.66146 c 0,-0.3638 0.11907,-0.66146 0.26459,-0.66146 0.14552,0 0.26458,0.29766 0.26458,0.66146 v 0.66146 h 4.36563 4.36562 l 0.0396,-0.7276 0.0396,-0.72761 0.11083,0.73392 0.11083,0.73392 4.40191,-0.0725 4.40191,-0.0725 0.18374,-0.66146 0.18374,-0.66146 0.0264,0.72761 0.0264,0.7276 h 4.36563 4.36562 v -0.74646 -0.74645 l -7.20989,-0.32266 c -8.68486,-0.38866 -13.23278,-0.6798 -18.85157,-1.20682 -2.32833,-0.21839 -5.60255,-0.5255 -7.27604,-0.68248 -1.67349,-0.15698 -3.57188,-0.40537 -4.21865,-0.55198 -0.64677,-0.14661 -1.8374,-0.33223 -2.64584,-0.41248 -0.80843,-0.0802 -2.0652,-0.30237 -2.7928,-0.4936 l -1.32292,-0.3477 -0.3659,0.51073 -0.3659,0.51072 -0.88219,-0.90836 -0.88219,-0.90836 h -1.2297 c -0.9895,0 -1.25575,0.0991 -1.36245,0.50711 -0.17113,0.6544 -0.61164,0.65229 -0.7832,-0.004 -0.25175,-0.96269 -2.06502,-1.29182 -2.33176,-0.42323 l -0.165,0.53723 -0.33713,-0.92604 c -0.4001,-1.099 -1.13462,-1.37748 -1.26205,-0.47849 -0.1259,0.88824 -0.52083,0.7483 -0.88972,-0.31526 l -0.3212,-0.92605 -0.19487,0.99219 c -0.10719,0.54571 -0.29351,0.99219 -0.41405,0.99219 -0.12054,0 -0.26401,-0.44648 -0.31883,-0.99219 l -0.0997,-0.99219 -0.22183,0.89923 -0.22183,0.89922 -0.31594,-0.43209 c -0.17378,-0.23765 -0.39996,-0.34809 -0.50262,-0.24543 -0.10266,0.10267 -0.26949,0.0607 -0.37071,-0.0932 -0.36264,-0.55133 -2.72071,-1.7449 -3.1998,-1.61961 -0.27498,0.0719 -0.98067,-0.20261 -1.6136,-0.62768 -0.61868,-0.41552 -1.21567,-0.69937 -1.32664,-0.63079 -0.11097,0.0686 -0.3489,-0.0526 -0.52873,-0.26927 -0.17982,-0.21667 -0.59342,-0.39396 -0.91909,-0.39396 -0.32568,0 -1.03077,-0.29765 -1.56686,-0.66146 -0.53609,-0.3638 -1.09947,-0.66145 -1.25196,-0.66145 -0.15248,0 -0.57997,-0.23813 -0.94997,-0.52917 -0.37,-0.29104 -0.96547,-0.52917 -1.32327,-0.52917 -0.397,0 -0.6978,-0.18046 -0.77178,-0.46302 -0.12032,-0.45953 -1.70435,-1.65364 -2.19362,-1.65364 -0.14033,0 -0.35036,-0.14883 -0.46674,-0.33073 -0.11637,-0.1819 -0.68783,-0.66023 -1.26991,-1.06296 l -1.05834,-0.73222 -0.0637,0.99681 c -0.035,0.54824 -0.14288,1.88977 -0.23964,2.98118 -0.22901,2.5832 -0.55949,1.61511 -0.59631,-1.74681 l -0.0264,-2.408268 -0.60181,-0.899025 c -0.33099,-0.494052 -0.86343,-1.014701 -1.18318,-1.156587 -0.31976,-0.141888 -0.71823,-0.588372 -0.8855,-0.992187 -0.16727,-0.403818 -0.38427,-0.734214 -0.48223,-0.734214 -0.098,0 -0.63211,-0.595312 -1.18699,-1.322917 -0.55488,-0.727604 -1.17466,-1.322916 -1.37728,-1.322916 -0.21153,0 -0.36842,-0.267883 -0.36842,-0.629063 0,-0.345982 -0.16677,-0.767464 -0.37059,-0.936625 -0.20383,-0.169161 -1.05899,-1.463662 -1.90036,-2.876667 -0.84138,-1.413007 -1.92076,-3.127732 -2.39864,-3.8105 -0.47787,-0.682768 -0.94408,-1.541087 -1.03601,-1.907376 -0.0919,-0.366289 -0.33407,-0.804505 -0.53807,-0.973815 -0.204,-0.169307 -0.37091,-0.662212 -0.37091,-1.095346 0,-0.847918 -0.71763,-2.587276 -1.06746,-2.587276 -0.11738,0 -0.29187,-0.357187 -0.38775,-0.79375 -0.45898,-2.089713 -0.66156,-0.33093 -0.66283,5.754688 -7.9e-4,3.601641 -0.078,7.705384 -0.17163,9.119431 -0.33555,5.067073 -0.62118,2.137553 -0.64561,-6.621505 -0.0137,-4.90274 -0.11584,-9.985634 -0.22705,-11.295322 -0.19653,-2.314594 -0.97065,-5.514462 -1.73227,-7.160504 -0.20626,-0.445775 -0.45357,-1.338744 -0.54958,-1.984375 -0.096,-0.645628 -0.33909,-1.437574 -0.54019,-1.759876 -0.2011,-0.322302 -0.36563,-0.999884 -0.36563,-1.505738 0,-0.505855 -0.11907,-0.99332 -0.26459,-1.083258 -0.17468,-0.107957 -0.26458,3.378894 -0.26458,10.261596 0,10.99866 -0.19806,16.858197 -0.56983,16.858197 -0.12316,0 -0.2352,-5.982891 -0.24899,-13.295313 -0.0277,-14.692675 -0.36282,-21.894272 -1.0188,-21.894272 -0.28098,0 -0.54232,10.727985 -0.54302,22.291147 -4e-4,6.481887 -0.0935,9.988021 -0.2652,9.988021 -0.17238,0 -0.2766,-4.587057 -0.29907,-13.163021 -0.019,-7.239662 -0.11644,-15.425209 -0.2166,-18.190105 l -0.18211,-5.027083 -0.0483,6.614583 c -0.12431,17.031473 -0.41943,32.402448 -0.61617,32.09233 -0.11944,-0.18828 -0.23068,-0.997172 -0.24719,-1.797537 l -0.03,-1.455208 -0.30475,1.106077 c -0.47182,1.712428 -0.69782,1.650982 -0.74326,-0.202083 l -0.0416,-1.697744 -0.22817,1.852083 c -0.12549,1.018646 -0.29706,2.506927 -0.38127,3.307292 -0.10286,0.977596 -0.33038,1.621864 -0.69322,1.962981 l -0.54011,0.507772 -0.29376,-0.375481 c -0.16156,-0.206515 -0.63993,-0.554074 -1.06304,-0.772355 -0.42311,-0.218282 -0.82009,-0.590482 -0.88218,-0.827114 -0.0621,-0.236631 -0.40053,-0.584171 -0.75207,-0.772314 -0.35155,-0.18814 -0.63917,-0.441018 -0.63917,-0.561948 0,-0.120931 -0.11907,-0.219875 -0.26459,-0.219875 -0.14552,0 -0.26458,0.290629 -0.26458,0.645843 0,0.355214 -0.10557,0.711092 -0.2346,0.790837 -0.37435,0.231357 -0.74885,-0.419428 -0.95286,-1.655797 l -0.18896,-1.145159 -0.35389,0.505248 c -0.19464,0.27789 -0.43363,0.822976 -0.5311,1.211305 -0.0975,0.388332 -0.28336,0.706057 -0.41311,0.706057 -0.12974,0 -0.2359,0.714375 -0.2359,1.5875 0,0.881944 -0.11759,1.5875 -0.26458,1.5875 -0.14552,0 -0.26458,-0.469223 -0.26458,-1.042718 0,-0.573495 -0.11907,-1.116303 -0.26459,-1.20624 -0.14552,-0.08994 -0.26458,-0.386869 -0.26458,-0.65985 0,-0.272979 -0.1259,-0.827466 -0.27977,-1.232191 -0.4994,-1.3135 -0.77021,-0.160769 -0.77451,3.296719 -0.003,2.102818 -0.0978,3.19882 -0.26864,3.093238 -0.14552,-0.08994 -0.27839,-1.07923 -0.29527,-2.198428 -0.0169,-1.119198 -0.0864,-1.820222 -0.1544,-1.557835 -0.0982,0.378722 -0.20097,0.412951 -0.49847,0.166042 -0.29999,-0.248968 -0.37477,-0.214815 -0.37477,0.171159 0,0.295936 -0.0922,0.385098 -0.23868,0.230833 -0.13127,-0.138245 -0.30576,-1.144323 -0.38775,-2.235729 -0.082,-1.091406 -0.24248,-2.579688 -0.35664,-3.307292 l -0.20755,-1.322917 -1.52136,-0.08736 -1.52135,-0.08736 v 1.873298 1.873297 h 0.66146 c 0.3638,0 0.66145,0.119063 0.66145,0.264584 0,0.145521 -0.29765,0.264583 -0.66145,0.264583 h -0.66146 v 1.852084 1.852083 l 0.7276,0.03964 0.72761,0.03964 -0.72761,0.110223 -0.7276,0.110223 v 1.966801 1.966801 l 0.7276,0.03964 0.72761,0.03964 -0.72761,0.110222 -0.7276,0.110223 v 1.83451 1.834508 h 1.33853 c 0.82498,0 1.27579,0.10152 1.17501,0.26459 -0.0899,0.14552 -0.69228,0.26458 -1.33853,0.26458 h -1.17501 v 1.85208 1.85209 h 0.66146 c 0.3638,0 0.66145,0.11906 0.66145,0.26458 0,0.14552 -0.29765,0.26458 -0.66145,0.26458 h -0.66146 v 1.71979 1.7198 h 0.66146 c 0.3638,0 0.66145,0.11906 0.66145,0.26458 0,0.14552 -0.29765,0.26458 -0.66145,0.26458 h -0.66146 v 1.85209 1.85208 h 0.66146 c 0.3638,0 0.66145,0.11906 0.66145,0.26458 0,0.14552 -0.29765,0.26459 -0.66145,0.26459 h -0.66146 v 1.34181 c 0,1.55546 0.40147,2.09777 1.55298,2.09777 1.25244,0 1.23166,0.48676 -0.0256,0.59973 -0.62178,0.0559 0.86379,0.12237 3.30126,0.14779 l 4.43178,0.0462 z m 119.32709,0.0558 v -0.60563 l -1.38906,-0.0144 c -0.76399,-0.008 -2.72852,-0.10263 -4.36563,-0.21043 l -2.97656,-0.19599 v 0.81604 0.81606 h 4.36562 4.36563 v -0.60563 z m 9.14237,0.31798 c 0.36598,-0.59217 -0.38663,-0.73101 -4.44602,-0.82019 l -4.16719,-0.0916 v 0.59969 0.5997 h 4.21772 c 2.75178,0 4.27951,-0.1 4.39549,-0.28764 z m 9.11388,-0.0814 c 0,-0.45311 -1.1187,-0.58366 -5.49011,-0.6407 l -3.24114,-0.0423 v 0.52604 0.52603 h 4.36562 c 3.55808,0 4.36563,-0.0683 4.36563,-0.36908 z m 9.26042,-0.0278 v -0.39687 h -4.36563 -4.36562 v 0.39687 0.39688 h 4.36562 4.36563 z m 8.33437,0.20243 c -0.58208,-0.058 -1.17144,-0.2166 -1.30969,-0.3524 -0.13824,-0.13579 -1.65629,-0.2469 -3.37343,-0.2469 -2.5988,0 -3.12209,0.0665 -3.12209,0.39687 v 0.39688 l 4.43177,-0.0445 c 2.43748,-0.0245 3.95552,-0.0919 3.37344,-0.14997 z m 1.45521,-2.31909 v -1.71979 h -0.66146 c -0.3638,0 -0.66146,-0.11907 -0.66146,-0.26459 0,-0.14552 0.29766,-0.26458 0.66146,-0.26458 h 0.66146 v -1.85208 -1.85209 h -0.66146 c -0.3638,0 -0.66146,-0.11906 -0.66146,-0.26458 0,-0.14552 0.29766,-0.26458 0.66146,-0.26458 h 0.66146 v -1.7198 -1.71979 h -0.66146 c -0.3638,0 -0.66146,-0.11906 -0.66146,-0.26458 0,-0.14552 0.29766,-0.26458 0.66146,-0.26458 h 0.66146 v -1.85209 -1.85208 h -1.32292 c -0.7276,0 -1.32291,-0.11906 -1.32291,-0.26458 0,-0.14552 0.59531,-0.26459 1.32291,-0.26459 h 1.32292 v -1.852081 -1.852083 l -0.7276,-0.03964 -0.72761,-0.03964 0.72761,-0.110223 0.7276,-0.110223 v -1.966801 -1.966802 l -0.7276,-0.03964 -0.72761,-0.03964 0.72761,-0.110223 0.7276,-0.110222 v -1.83451 -1.83451 h -0.66146 c -0.3638,0 -0.66146,-0.119062 -0.66146,-0.264583 0,-0.145521 0.29766,-0.264584 0.66146,-0.264584 h 0.66146 v -1.852083 -1.852083 l -1.38906,-0.04894 -1.38907,-0.04894 1.38907,-0.09718 1.38906,-0.09718 v -1.838256 -1.838256 h -0.66146 c -0.3638,0 -0.66146,-0.119063 -0.66146,-0.264584 0,-0.145521 0.29766,-0.264583 0.66146,-0.264583 h 0.66146 v -1.852084 -1.852083 l -0.7276,-0.03964 -0.72761,-0.03964 0.72761,-0.110223 0.7276,-0.110223 v -1.834509 -1.83451 h -0.66146 c -0.3638,0 -0.66146,-0.119063 -0.66146,-0.264583 0,-0.145521 0.29766,-0.264584 0.66146,-0.264584 h 0.66146 v -1.984375 -1.984375 l -1.38906,-0.04894 -1.38907,-0.04894 1.38907,-0.09718 1.38906,-0.09718 v -1.705964 -1.705965 h -0.51355 c -0.28245,0 -0.58714,-0.119062 -0.67708,-0.264583 -0.0927,-0.150061 0.12955,-0.264583 0.51356,-0.264583 h 0.67707 V 32.997645 31.01327 l -0.7276,-0.03964 -0.72761,-0.03964 0.72761,-0.110222 0.7276,-0.110223 v -1.834511 -1.834509 h -0.66146 c -0.3638,0 -0.66146,-0.119062 -0.66146,-0.264583 0,-0.145521 0.29766,-0.264583 0.66146,-0.264583 h 0.66146 v -1.719792 -1.719792 h -1.32292 c -0.7276,0 -1.32291,-0.119062 -1.32291,-0.264583 0,-0.145521 0.59531,-0.264584 1.32291,-0.264584 h 1.32292 v -1.852083 -1.852083 h -0.66146 c -0.3638,0 -0.66146,-0.119063 -0.66146,-0.264584 0,-0.145521 0.29766,-0.264583 0.66146,-0.264583 h 0.66146 v -1.719808 -1.719792 h -0.66146 c -0.3638,0 -0.66146,-0.119062 -0.66146,-0.264583 0,-0.145521 0.29766,-0.264583 0.66146,-0.264583 h 0.66146 v -1.852084 -1.852083 h -0.51355 c -0.28245,0 -0.58714,-0.119063 -0.67708,-0.264583 -0.0927,-0.150061 0.12955,-0.264584 0.51356,-0.264584 h 0.67707 l -0.0397,-1.9182287 -0.0397,-1.918229 -0.1851,1.190625 -0.18511,1.190625 -0.0397,-1.124479 -0.0397,-1.12448 h -1.05833 c -0.58208,0 -1.05833,-0.119062 -1.05833,-0.264583 0,-0.162278 -1.27882,-0.264583 -3.3073,-0.264583 h -3.30729 v 0.661458 c 0,0.363802 -0.11906,0.661458 -0.26458,0.661458 -0.14552,0 -0.26458,-0.297656 -0.26458,-0.661458 v -0.661458 h -4.36563 -4.36562 v 0.661458 c 0,0.363802 -0.11907,0.661458 -0.26459,0.661458 -0.14552,0 -0.26458,-0.297656 -0.26458,-0.661458 v -0.661458 h -4.36563 -4.36562 l -0.0396,0.727604 -0.0396,0.727604 -0.11022,-0.727604 -0.11022,-0.727604 h -4.34805 -4.34806 v 0.661458 c 0,0.363802 -0.11906,0.661458 -0.26458,0.661458 -0.14552,0 -0.26458,-0.297656 -0.26458,-0.661458 v -0.661458 h -4.36563 -4.36562 v 1.322916 c 0,0.727605 -0.11906,1.322917 -0.26459,1.322917 -0.14552,0 -0.26458,-0.595312 -0.26458,-1.322917 v -1.322916 h -4.36562 -4.36563 l -0.0396,0.727604 -0.0396,0.727604 -0.11023,-0.727604 -0.11022,-0.727604 h -4.48034 -4.48035 l -0.0396,0.727604 -0.0396,0.727604 -0.11022,-0.727604 -0.11023,-0.727604 h -4.34805 -4.34805 v 0.661458 c 0,0.363802 -0.11906,0.661458 -0.26458,0.661458 -0.14552,0 -0.26459,-0.297656 -0.26459,-0.661458 v -0.661458 h -4.36562 -4.36563 l -0.0396,0.727604 -0.0396,0.727604 -0.11022,-0.727604 -0.11023,-0.727604 h -4.48034 -4.48034 l -0.0489,1.389062 -0.0489,1.389063 -0.0972,-1.389063 -0.0972,-1.389062 h -4.35229 -4.35179 v 0.661458 c 0,0.363802 -0.11907,0.661458 -0.26459,0.661458 -0.14552,0 -0.26458,-0.297656 -0.26458,-0.661458 v -0.661458 h -4.36563 -4.36562 v 0.661458 c 0,0.363802 -0.11906,0.661458 -0.26458,0.661458 -0.14552,0 -0.26459,-0.297656 -0.26459,-0.661458 v -0.661458 h -4.36562 -4.36563 l -0.0396,0.727604 -0.0396,0.727604 -0.11022,-0.727604 -0.11022,-0.727604 h -4.34805 -4.34806 v 0.661458 c 0,0.363802 -0.11906,0.661458 -0.26458,0.661458 -0.14552,0 -0.26458,-0.297656 -0.26458,-0.661458 v -0.661458 h -4.36563 -4.36562 v 1.322916 c 0,0.727605 -0.11907,1.322917 -0.26459,1.322917 -0.14552,0 -0.26458,-0.595312 -0.26458,-1.322917 v -1.322916 h -4.36563 -4.36563 l -0.0396,0.727604 -0.0396,0.727604 -0.11022,-0.727604 -0.11022,-0.727604 h -4.34805 -4.34805 v 0.661458 c 0,0.363802 -0.11907,0.661458 -0.26459,0.661458 -0.14552,0 -0.26458,-0.297656 -0.26458,-0.661458 v -0.661458 h -3.4552 c -2.23609,0 -3.3975,0.09335 -3.29167,0.264583 0.0988,0.15979 -0.26184,0.264583 -0.91043,0.264583 -0.77823,0 -1.07395,0.109282 -1.07395,0.396875 0,0.218282 -0.11906,0.396875 -0.26458,0.396875 -0.14552,0 -0.26459,0.654844 -0.26459,1.455209 v 1.4552077 h 0.66146 c 0.3638,0 0.66146,0.119063 0.66146,0.264584 0,0.14552 -0.29766,0.264583 -0.66146,0.264583 h -0.66146 v 1.852083 1.852084 h 0.66146 c 0.3638,0 0.66146,0.119062 0.66146,0.264583 0,0.145521 -0.29766,0.264583 -0.66146,0.264583 h -0.66146 v 1.719792 1.719792 h 0.66146 c 0.3638,0 0.66146,0.119062 0.66146,0.264583 0,0.145521 -0.29766,0.264584 -0.66146,0.264584 h -0.66146 v 1.852083 1.852083 h 1.17501 c 0.64626,0 1.2486,0.119063 1.33854,0.264584 0.10078,0.163071 -0.35003,0.264583 -1.17501,0.264583 h -1.33854 v 1.719792 1.719792 h 0.66146 c 0.3638,0 0.66146,0.119062 0.66146,0.264583 0,0.145521 -0.29766,0.264583 -0.66146,0.264583 h -0.66146 v 1.852084 1.852083 l 0.72761,0.03964 0.7276,0.03964 -0.7276,0.110223 -0.72761,0.110223 v 1.966801 1.966802 h 0.67708 c 0.384,0 0.60629,0.114522 0.51355,0.264583 -0.0899,0.145521 -0.39462,0.264583 -0.67707,0.264583 h -0.51356 v 1.719792 1.719792 l 1.38907,0.04894 1.38906,0.04894 -1.38906,0.09718 -1.38907,0.09718 v 1.970548 1.970548 h 0.66146 0.66146 v 1.500521 c 0,1.058064 0.13653,1.651159 0.46302,2.011384 0.3747,0.413417 0.48826,1.174411 0.59531,3.989583 0.10361,2.724513 0.17643,3.232227 0.33585,2.34179 0.304,-1.697966 0.62144,-1.146373 0.81894,1.423012 0.0967,1.258578 0.28959,2.482987 0.42855,2.720911 l 0.25266,0.432591 0.008,-0.595312 c 0.004,-0.327422 0.1271,-0.595313 0.27262,-0.595313 0.14553,0 0.26459,0.350161 0.26459,0.778135 0,0.427974 0.11906,0.85172 0.26458,0.941657 0.14552,0.08994 0.26458,-0.09437 0.26458,-0.409567 0,-0.400711 0.11938,-0.52728 0.39688,-0.420793 0.32035,0.122928 0.39687,-0.104212 0.39687,-1.177933 0,-1.786454 0.43177,-1.425948 0.66136,0.552198 0.18208,1.568823 0.6415,1.959367 0.68298,0.580584 l 0.0214,-0.711989 0.50081,1.058333 0.50081,1.058334 0.007,-0.84428 c 0.009,-1.08983 0.49411,-1.381991 1.08439,-0.653026 0.50616,0.625088 1.45896,0.765201 1.63569,0.240535 0.0613,-0.181901 0.19752,0.125706 0.30277,0.683572 0.13776,0.730184 0.29801,0.973378 0.5721,0.868201 0.23113,-0.08869 0.38074,0.01631 0.38074,0.267237 0,0.227338 0.23063,0.473655 0.51252,0.54737 0.28189,0.07372 0.63247,0.478089 0.77906,0.898607 0.18608,0.533789 0.39077,0.716905 0.6781,0.606645 0.29212,-0.112096 0.41157,0.0039 0.41157,0.399539 0,0.306613 0.10741,0.557475 0.2387,0.557475 0.57098,0 0.81679,-2.06928 1.07778,-9.072793 0.15297,-4.105016 0.40672,-10.916479 0.56388,-15.136583 0.15716,-4.220104 0.34767,-9.310026 0.42335,-11.310938 0.0757,-2.000911 0.24314,-3.638021 0.37215,-3.638021 0.129,0 0.23456,-0.833437 0.23456,-1.852083 0,-2.592338 0.48859,-2.321622 0.5969,0.330729 l 0.0891,2.182812 0.0539,-2.844271 c 0.0296,-1.564349 0.16069,-2.84427 0.29128,-2.84427 0.27057,0 0.79993,2.771455 0.86325,4.519589 0.0352,0.97246 0.0603,1.024411 0.14905,0.309057 0.0587,-0.472943 0.16721,-0.859896 0.24114,-0.859896 0.45058,0 0.85297,0.893012 0.96284,2.136756 0.0697,0.789315 0.25769,1.911369 0.41772,2.493452 0.16002,0.582084 0.30134,2.189427 0.31403,3.571875 0.018,1.963457 0.0813,2.368783 0.28913,1.852084 l 0.26605,-0.661459 0.37864,0.513591 c 0.20825,0.282475 0.37864,0.8381 0.37864,1.234723 0,0.396621 0.0899,0.760818 0.19974,0.809326 0.10985,0.04851 0.39111,0.981163 0.62502,2.072569 0.23391,1.091406 0.67231,2.69875 0.97421,3.571875 1.185,3.427042 1.40707,4.376198 1.61526,6.903876 0.11874,1.441617 0.23255,2.367812 0.25291,2.058207 0.0397,-0.604268 0.70572,-1.320659 0.90293,-0.971285 0.0656,0.116208 0.19995,0.548341 0.29855,0.9603 0.0986,0.411959 0.46967,1.187812 0.82459,1.72412 0.35491,0.536311 0.72674,1.389878 0.82628,1.896819 0.0995,0.506942 0.44476,1.342764 0.76714,1.857381 0.32238,0.514614 0.829,1.467114 1.12582,2.116667 0.29683,0.649549 0.84717,1.63277 1.22299,2.184937 0.37582,0.552164 0.68331,1.089535 0.68331,1.194157 0,0.104619 0.41672,0.809011 0.92604,1.565312 0.50932,0.756301 0.92604,1.498851 0.92604,1.650114 0,0.151262 0.11348,0.275021 0.25217,0.275021 0.1387,0 0.43685,0.386953 0.66256,0.859896 0.22572,0.472943 1.00521,1.505167 1.73221,2.293834 0.727,0.788668 1.32181,1.487041 1.32181,1.551946 0,0.0649 0.58779,0.678611 1.3062,1.363792 0.71841,0.685183 1.38696,1.567587 1.48567,1.960896 0.14548,0.579629 0.25038,0.656279 0.55365,0.404579 0.29397,-0.243972 0.5001,-0.198286 0.96172,0.21315 0.8344,0.74369 3.80899,2.66608 4.43059,2.86337 0.28742,0.0912 0.52259,0.27064 0.52259,0.39869 0,0.25177 2.5041,1.5836 2.97747,1.5836 0.15848,0 0.47612,0.15738 0.70586,0.34974 0.22974,0.19235 1.19162,0.68364 2.1375,1.09175 0.94589,0.40811 1.95792,0.94608 2.24896,1.1955 0.70824,0.60694 5.27825,1.47893 7.19344,1.37256 0.37418,-0.0208 0.64168,0.16579 0.75653,0.52765 0.12815,0.40375 0.23545,0.46632 0.38493,0.22445 0.2461,-0.3982 1.58698,-0.14229 1.58698,0.30287 0,0.18995 0.14569,0.17103 0.41704,-0.0542 0.3404,-0.28251 0.45588,-0.28327 0.62838,-0.004 0.14884,0.24083 0.26488,0.25536 0.39233,0.0491 0.25459,-0.41193 0.67891,-0.3646 0.67891,0.0757 0,0.53733 0.70231,0.74263 2.68443,0.78472 1.34935,0.0287 1.89389,0.16002 2.34091,0.56473 0.34488,0.31222 0.85395,0.49181 1.24783,0.4402 0.64356,-0.0843 2.15002,0.13938 6.02995,0.89548 2.94468,0.57384 16.02053,1.8484 21.43126,2.089 1.74625,0.0776 4.96093,0.25894 7.14375,0.40286 5.83149,0.38451 9.74727,0.40222 9.86647,0.0446 0.14596,-0.43789 0.58457,-0.36408 0.58457,0.0984 0,0.32806 0.5161,0.40038 2.97656,0.4171 1.63711,0.0111 3.81,0.0512 4.82865,0.089 2.85518,0.10607 30.53703,0.5522 34.26354,0.5522 h 3.30729 l 0.16361,-0.92604 0.16361,-0.92604 0.0348,1.12448 c 0.0554,1.78777 0.29941,1.30256 0.29941,-0.59531 z M 256.96964,55.024198 c -0.0802,-0.327422 -0.23208,-0.714375 -0.3376,-0.859896 -0.10553,-0.145521 -0.27233,-0.711068 -0.37065,-1.256771 -0.14929,-0.828506 -0.28593,-0.992187 -0.82825,-0.992187 h -0.64947 v 1.852083 1.852083 h 1.16585 1.16586 z m -0.86306,-4.856954 c 0,-0.974794 -0.0795,-1.188429 -0.39687,-1.066636 -0.25726,0.09872 -0.3983,-0.0077 -0.40093,-0.302421 -0.002,-0.250095 -0.11946,-0.633312 -0.26053,-0.851594 -0.17866,-0.27645 -0.25771,0.185177 -0.26053,1.521355 l -0.004,1.918229 h 0.66146 0.66146 z m -0.52916,-4.866484 c 0,-1.234723 -0.0882,-1.5875 -0.39688,-1.5875 -0.72697,0 -0.40799,3.05254 0.33073,3.164935 0.0364,0.0055 0.0661,-0.70431 0.0661,-1.577435 z"
       id="path2592" /><text
       xml:space="preserve"
       style="font-size:5.64444px;line-height:0;font-family:sans-serif;text-align:center;letter-spacing:0px;word-spacing:0px;text-anchor:middle;stroke-width:0.264583"
       x="281.82526"
       y="96.832489"
       id="text2652"><tspan
         sodipodi:role="line"
         id="tspan2650"
         style="stroke-width:0.264583"
         x="281.82526"
         y="96.832489">5000</tspan></text><text
       xml:space="preserve"
       style="font-size:5.64444px;line-height:0;font-family:sans-serif;text-align:center;letter-spacing:0px;word-spacing:0px;text-anchor:middle;stroke-width:0.264583"
       x="328.39182"
       y="96.832489"
       id="text2656"><tspan
         sodipodi:role="line"
         id="tspan2654"
         style="stroke-width:0.264583"
         x="328.39182"
         y="96.832489">10,000</tspan></text><text
       xml:space="preserve"
       style="font-size:5.64444px;line-height:0;font-family:sans-serif;text-align:center;letter-spacing:0px;word-spacing:0px;text-anchor:middle;stroke-width:0.264583"
       x="374.42929"
       y="96.832489"
       id="text2710"><tspan
         sodipodi:role="line"
         id="tspan2708"
         style="stroke-width:0.264583"
         x="374.42929"
         y="96.832489">15,000</tspan></text><text
       xml:space="preserve"
       style="font-size:5.64444px;line-height:0;font-family:sans-serif;text-align:center;letter-spacing:0px;word-spacing:0px;text-anchor:middle;stroke-width:0.264583"
       x="420.99585"
       y="96.832489"
       id="text2714"><tspan
         sodipodi:role="line"
         id="tspan2712"
         style="stroke-width:0.264583"
         x="420.99585"
         y="96.832489">20,000</tspan></text><text
       xml:space="preserve"
       style="font-size:5.64444px;line-height:0;font-family:sans-serif;text-align:center;letter-spacing:0px;word-spacing:0px;text-anchor:middle;stroke-width:0.264583"
       x="248.56126"
       y="91.540825"
       id="text2718"><tspan
         sodipodi:role="line"
         id="tspan2716"
         style="stroke-width:0.264583"
         x="248.56126"
         y="91.540825">0</tspan></text><text
       xml:space="preserve"
       style="font-size:5.64444px;line-height:0;font-family:sans-serif;text-align:center;letter-spacing:0px;word-spacing:0px;text-anchor:middle;stroke-width:0.264583"
       x="248.56126"
       y="74.607498"
       id="text2722"><tspan
         sodipodi:role="line"
         id="tspan2720"
         style="stroke-width:0.264583"
         x="248.56126"
         y="74.607498">2</tspan></text><text
       xml:space="preserve"
       style="font-size:5.64444px;line-height:0;font-family:sans-serif;text-align:center;letter-spacing:0px;word-spacing:0px;text-anchor:middle;stroke-width:0.264583"
       x="248.56126"
       y="57.674168"
       id="text2726"><tspan
         sodipodi:role="line"
         id="tspan2724"
         style="stroke-width:0.264583"
         x="248.56126"
         y="57.674168">4</tspan></text><text
       xml:space="preserve"
       style="font-size:5.64444px;line-height:0;font-family:sans-serif;text-align:center;letter-spacing:0px;word-spacing:0px;text-anchor:middle;stroke-width:0.264583"
       x="248.56126"
       y="40.740829"
       id="text2730"><tspan
         sodipodi:role="line"
         id="tspan2728"
         style="stroke-width:0.264583"
         x="248.56126"
         y="40.740829">6</tspan></text><text
       xml:space="preserve"
       style="font-size:5.64444px;line-height:0;font-family:sans-serif;text-align:center;letter-spacing:0px;word-spacing:0px;text-anchor:middle;stroke-width:0.264583"
       x="248.56126"
       y="24.865829"
       id="text2734"><tspan
         sodipodi:role="line"
         id="tspan2732"
         style="stroke-width:0.264583"
         x="248.56126"
         y="24.865829">8</tspan></text><text
       xml:space="preserve"
       style="font-size:5.64444px;line-height:0;font-family:sans-serif;text-align:center;letter-spacing:0px;word-spacing:0px;text-anchor:middle;stroke-width:0.264583"
       x="-47.518021"
       y="241.54399"
       id="text2738"
       transform="rotate(-90)"><tspan
         sodipodi:role="line"
         id="tspan2736"
         style="stroke-width:0.264583"
         x="-47.518021"
         y="241.54399">Flux (nano-erg s<tspan
   style="font-size:65%;baseline-shift:super"
   id="tspan2744">-1</tspan> cm<tspan
   style="font-size:65%;baseline-shift:super"
   id="tspan2742">-2</tspan> Å<tspan
   style="font-size:65%;baseline-shift:super"
   id="tspan2740">-1</tspan>)</tspan></text><text
       xml:space="preserve"
       style="font-size:5.64444px;line-height:0;font-family:sans-serif;text-align:center;letter-spacing:0px;word-spacing:0px;text-anchor:middle;fill:#0000ff;stroke-width:0.264583"
       x="427.94843"
       y="69.844994"
       id="text2754"><tspan
         sodipodi:role="line"
         id="tspan2752"
         style="fill:#0000ff;stroke-width:0.264583"
         x="427.94843"
         y="69.844994">500</tspan></text><text
       xml:space="preserve"
       style="font-size:5.64444px;line-height:0;font-family:sans-serif;text-align:center;letter-spacing:0px;word-spacing:0px;text-anchor:middle;fill:#0000ff;stroke-width:0.264583"
       x="424.42065"
       y="91.540825"
       id="text2758"><tspan
         sodipodi:role="line"
         id="tspan2756"
         style="fill:#0000ff;stroke-width:0.264583"
         x="424.42065"
         y="91.540825">0</tspan></text><text
       xml:space="preserve"
       style="font-size:5.64444px;line-height:0;font-family:sans-serif;text-align:center;letter-spacing:0px;word-spacing:0px;text-anchor:middle;fill:#0000ff;stroke-width:0.264583"
       x="429.55936"
       y="45.503326"
       id="text2762"><tspan
         sodipodi:role="line"
         id="tspan2760"
         style="fill:#0000ff;stroke-width:0.264583"
         x="429.55936"
         y="45.503326">1000</tspan></text><text
       xml:space="preserve"
       style="font-size:5.64444px;line-height:0;font-family:sans-serif;text-align:center;letter-spacing:0px;word-spacing:0px;text-anchor:middle;fill:#0000ff;stroke-width:0.264583"
       x="429.55936"
       y="24.865826"
       id="text2766"><tspan
         sodipodi:role="line"
         id="tspan2764"
         style="fill:#0000ff;stroke-width:0.264583"
         x="429.55936"
         y="24.865826">1500</tspan></text><text
       xml:space="preserve"
       style="font-size:5.64444px;line-height:0;font-family:sans-serif;text-align:center;letter-spacing:0px;word-spacing:0px;text-anchor:middle;fill:#0000ff;stroke-width:0.264583"
       x="429.55936"
       y="8.9908257"
       id="text2770"><tspan
         sodipodi:role="line"
         id="tspan2768"
         style="fill:#0000ff;stroke-width:0.264583"
         x="429.55936"
         y="8.9908257">2000</tspan></text><text
       xml:space="preserve"
       style="font-size:5.64444px;line-height:0;font-family:sans-serif;text-align:center;letter-spacing:0px;word-spacing:0px;text-anchor:middle;fill:#0000ff;stroke-width:0.264583"
       x="-47.518021"
       y="447.91864"
       id="text2780"
       transform="rotate(-90)"><tspan
         sodipodi:role="line"
         id="tspan2778"
         style="fill:#0000ff;stroke-width:0.264583"
         x="-47.518021"
         y="447.91864">Flux (photons s<tspan
   style="font-size:65%;baseline-shift:super;fill:#0000ff"
   id="tspan2772">-1</tspan> cm<tspan
   style="font-size:65%;baseline-shift:super;fill:#0000ff"
   id="tspan2774">-2</tspan> Å<tspan
   style="font-size:65%;baseline-shift:super;fill:#0000ff"
   id="tspan2776">-1</tspan>)</tspan></text><text
       xml:space="preserve"
       style="font-size:5.64444px;line-height:0;font-family:sans-serif;text-align:center;letter-spacing:0px;word-spacing:0px;text-anchor:middle;stroke-width:0.264583"
       x="337.87936"
       y="105.30881"
       id="text3999"><tspan
         sodipodi:role="line"
         id="tspan3997"
         style="stroke-width:0.264583"
         x="337.87936"
         y="105.30881">Wavelength (Å)</tspan></text></g></svg>
