<?xml version="1.0" encoding="UTF-8" standalone="no"?>
<svg
   version="1.1"
   viewBox="0 0 700 600"
   id="svg116"
   sodipodi:docname="Equation_of_time.svg"
   inkscape:version="1.2 (1:1.2.1+202207142221+cd75a1ee6d)"
   xmlns:inkscape="http://www.inkscape.org/namespaces/inkscape"
   xmlns:sodipodi="http://sodipodi.sourceforge.net/DTD/sodipodi-0.dtd"
   xmlns="http://www.w3.org/2000/svg"
   xmlns:svg="http://www.w3.org/2000/svg">
  <defs
     id="defs120" />
  <sodipodi:namedview
     id="namedview118"
     pagecolor="#ffffff"
     bordercolor="#666666"
     borderopacity="1.0"
     inkscape:showpageshadow="2"
     inkscape:pageopacity="0.0"
     inkscape:pagecheckerboard="0"
     inkscape:deskcolor="#d1d1d1"
     showgrid="false"
     inkscape:zoom="1.0335544"
     inkscape:cx="242.3675"
     inkscape:cy="289.77671"
     inkscape:window-width="1920"
     inkscape:window-height="1025"
     inkscape:window-x="1920"
     inkscape:window-y="24"
     inkscape:window-maximized="1"
     inkscape:current-layer="svg116" />
  <g
     style="fill:none;stroke:#c0c0c0;stroke-width:2"
     id="g60">
    <path
       d="m 31.2,575 0,-549.9"
       id="path2" />
    <path
       d="m 73.7,575 0,-549.9"
       id="path4" />
    <path
       d="m 116.2,575 0,-549.9"
       id="path6" />
    <path
       d="m 158.7,575 0,-549.9"
       id="path8" />
    <path
       d="m 201.2,575 0,-549.9"
       id="path10" />
    <path
       d="m 243.7,575 0,-549.9"
       id="path12" />
    <path
       d="m 286.2,575 0,-549.9"
       id="path14" />
    <path
       d="m 328.7,575 0,-549.9"
       id="path16" />
    <path
       d="m 371.1,575 0,-549.9"
       id="path18" />
    <path
       d="m 413.6,575 0,-549.9"
       id="path20" />
    <path
       d="m 456.1,575 0,-549.9"
       id="path22" />
    <path
       d="m 498.6,575 0,-549.9"
       id="path24" />
    <path
       d="m 541.1,575 0,-549.9"
       id="path26" />
    <path
       d="m 583.6,575 0,-549.9"
       id="path28" />
    <path
       d="m 626.1,575 0,-549.9"
       id="path30" />
    <path
       d="m 668.6,575 0,-549.9"
       id="path32" />
    <path
       d="m 31.2,575 637.4,0"
       id="path34" />
    <path
       d="m 31.2,529.2 637.4,0"
       id="path36" />
    <path
       d="m 31.2,483.3 637.4,0"
       id="path38" />
    <path
       d="m 31.2,437.5 637.4,0"
       id="path40" />
    <path
       d="m 31.2,391.7 637.4,0"
       id="path42" />
    <path
       d="m 31.2,345.9 637.4,0"
       id="path44" />
    <path
       d="m 31.2,300 637.4,0"
       id="path46" />
    <path
       d="m 31.2,254.2 637.4,0"
       id="path48" />
    <path
       d="m 31.2,208.4 637.4,0"
       id="path50" />
    <path
       d="m 31.2,162.6 637.4,0"
       id="path52" />
    <path
       d="m 31.2,116.7 637.4,0"
       id="path54" />
    <path
       d="m 31.2,70.9 637.4,0"
       id="path56" />
    <path
       d="m 31.2,25.1 637.4,0"
       id="path58" />
  </g>
  <g
     fill="#000000"
     font-family="sans-serif"
     font-size="24px"
     id="g110"
     transform="translate(-42)">
    <text
       x="103.7"
       y="581.70001"
       style="text-anchor:end"
       id="text64"><tspan
         id="tspan62">-18</tspan></text>
    <text
       x="103.7"
       y="490"
       style="text-anchor:end"
       id="text68"><tspan
         id="tspan66">-12</tspan></text>
    <text
       x="103.7"
       y="398.39999"
       style="text-anchor:end"
       id="text72"><tspan
         id="tspan70">-6</tspan></text>
    <text
       x="103.7"
       y="215.10001"
       style="text-anchor:end"
       id="text76"><tspan
         id="tspan74">6</tspan></text>
    <text
       x="103.7"
       y="123.4"
       style="text-anchor:end"
       id="text80"><tspan
         id="tspan78">12</tspan></text>
    <text
       x="103.7"
       y="31.799999"
       style="text-anchor:end"
       id="text84"><tspan
         id="tspan82">18</tspan></text>
    <text
       x="243.7"
       y="338.10001"
       style="text-anchor:middle"
       id="text88"><tspan
         id="tspan86">90</tspan></text>
    <text
       x="371.10001"
       y="338.10001"
       style="text-anchor:middle"
       id="text92"><tspan
         id="tspan90">180</tspan></text>
    <text
       x="498.60001"
       y="338.10001"
       style="text-anchor:middle"
       id="text96"><tspan
         id="tspan94">270</tspan></text>
    <text
       x="626.09998"
       y="338.10001"
       style="text-anchor:middle"
       id="text100"><tspan
         id="tspan98">360</tspan></text>
    <text
       x="-192.10001"
       y="149.39999"
       transform="rotate(-90)"
       style="text-anchor:middle"
       id="text104"><tspan
         id="tspan102">Minutes</tspan></text>
    <text
       x="549.90002"
       y="379.29999"
       style="text-anchor:middle"
       id="text108"><tspan
         id="tspan106">Day of year</tspan></text>
  </g>
  <path
     d="M 31.327217,300 H 668.06322 M 74.2,575 V 25.1"
     style="fill:none;stroke:#000000;stroke-width:3"
     id="path112"
     sodipodi:nodetypes="cccc" />
  <path
     d="m 73.5,346.5 1.3,6.2 1.3,6.1 1.2,6.2 1.3,6 1.3,6 1.3,5.9 1.2,5.8 1.3,5.8 1.3,5.6 1.3,5.6 1.3,5.5 1.2,5.4 1.3,5.3 1.3,5.2 1.3,5.1 1.2,5 1.3,4.9 1.3,4.7 1.3,4.7 1.3,4.5 1.2,4.3 1.3,4.3 1.3,4.1 1.3,4 1.2,3.8 1.3,3.7 1.3,3.6 1.3,3.4 1.2,3.3 1.3,3.1 1.3,3 1.3,2.8 1.3,2.7 1.2,2.5 1.3,2.3 1.3,2.2 1.3,2.1 1.2,1.8 1.3,1.7 1.3,1.6 1.3,1.4 1.3,1.2 1.2,1.1 1.3,0.9 1.3,0.8 1.3,0.6 1.2,0.4 1.3,0.2 1.3,0.2 1.3,-0.1 1.3,-0.2 1.2,-0.4 1.3,-0.5 1.3,-0.7 1.3,-0.8 1.2,-0.9 1.3,-1.2 1.3,-1.2 1.3,-1.4 1.2,-1.6 1.3,-1.7 1.3,-1.8 1.3,-2 1.3,-2.1 1.2,-2.2 1.3,-2.4 1.3,-2.4 1.3,-2.6 1.2,-2.8 1.3,-2.8 1.3,-2.9 1.3,-3.1 1.3,-3.1 1.2,-3.3 1.3,-3.3 1.3,-3.5 1.3,-3.5 1.2,-3.6 1.3,-3.7 1.3,-3.7 1.3,-3.9 1.2,-3.9 1.3,-4 1.3,-4 1.3,-4.1 1.3,-4.1 1.2,-4.2 1.3,-4.2 1.3,-4.3 1.3,-4.3 1.2,-4.3 1.3,-4.4 1.3,-4.4 1.3,-4.4 1.3,-4.4 1.2,-4.4 1.3,-4.4 1.3,-4.4 1.3,-4.4 1.2,-4.4 1.3,-4.4 1.3,-4.3 1.3,-4.4 1.3,-4.3 1.2,-4.2 1.3,-4.3 1.3,-4.2 1.3,-4.2 1.2,-4.1 1.3,-4 1.3,-4 1.3,-4 1.2,-3.9 1.3,-3.8 1.3,-3.7 1.3,-3.7 1.3,-3.6 1.2,-3.5 1.3,-3.5 1.3,-3.3 1.3,-3.3 1.2,-3.1 1.3,-3.1 1.3,-3 1.3,-2.9 1.3,-2.8 1.2,-2.7 1.3,-2.5 1.3,-2.5 1.3,-2.3 1.2,-2.3 1.3,-2.1 1.3,-2 1.3,-1.9 1.2,-1.8 1.3,-1.7 1.3,-1.5 1.3,-1.5 1.3,-1.3 1.2,-1.2 1.3,-1 1.3,-1 1.3,-0.8 1.2,-0.7 1.3,-0.6 1.3,-0.4 1.3,-0.4 1.3,-0.2 1.2,-0.1 1.3,0.1 1.3,0.1 1.3,0.3 1.2,0.3 1.3,0.5 1.3,0.6 1.3,0.8 1.3,0.8 1.2,0.9 1.3,1.1 1.3,1.1 1.3,1.3 1.2,1.3 1.3,1.5 1.3,1.5 1.3,1.7 1.2,1.7 1.3,1.8 1.3,1.9 1.3,2 1.3,2.1 1.2,2.1 1.3,2.2 1.3,2.3 1.3,2.3 1.2,2.5 1.3,2.4 1.3,2.6 1.3,2.5 1.3,2.7 1.2,2.6 1.3,2.7 1.3,2.8 1.3,2.8 1.2,2.8 1.3,2.8 1.3,2.9 1.3,2.8 1.2,2.9 1.3,2.9 1.3,2.9 1.3,2.9 1.3,2.9 1.2,2.9 1.3,2.9 1.3,2.8 1.3,2.9 1.2,2.8 1.3,2.8 1.3,2.7 1.3,2.8 1.3,2.6 1.2,2.7 1.3,2.6 1.3,2.5 1.3,2.5 1.2,2.4 1.3,2.4 1.3,2.3 1.3,2.2 1.2,2.2 1.3,2.1 1.3,2 1.3,1.9 1.3,1.8 1.2,1.7 1.3,1.7 1.3,1.6 1.3,1.4 1.2,1.4 1.3,1.2 1.3,1.2 1.3,1 1.3,1 1.2,0.8 1.3,0.7 1.3,0.6 1.3,0.4 1.2,0.4 1.3,0.2 1.3,0.1 h 1.3 l 1.3,-0.1 1.2,-0.3 1.3,-0.4 1.3,-0.5 1.3,-0.7 1.2,-0.8 1.3,-0.9 1.3,-1 1.3,-1.2 1.2,-1.3 1.3,-1.4 1.3,-1.6 1.3,-1.7 1.3,-1.8 1.2,-1.9 1.3,-2.1 1.3,-2.2 1.3,-2.3 1.2,-2.5 1.3,-2.6 1.3,-2.7 1.3,-2.8 1.3,-2.9 1.2,-3 1.3,-3.2 1.3,-3.3 1.3,-3.4 1.2,-3.5 1.3,-3.5 1.3,-3.7 1.3,-3.8 1.2,-3.9 1.3,-4 1.3,-4.1 1.3,-4.1 1.3,-4.3 1.2,-4.3 1.3,-4.4 1.3,-4.5 1.3,-4.6 1.2,-4.6 1.3,-4.6 1.3,-4.8 1.3,-4.8 1.3,-4.8 1.2,-4.9 1.3,-4.9 1.3,-5 1.3,-5 1.2,-5 1.3,-5.1 1.3,-5.1 1.3,-5.1 1.3,-5.1 1.2,-5.1 1.3,-5.1 1.3,-5.1 1.3,-5.2 1.2,-5.1 1.3,-5 1.3,-5.1 1.3,-5.1 1.2,-5 1.3,-4.9 1.3,-5 1.3,-4.9 1.3,-4.8 1.2,-4.8 1.3,-4.8 1.3,-4.7 1.3,-4.6 1.2,-4.5 1.3,-4.5 1.3,-4.4 1.3,-4.3 1.3,-4.2 1.2,-4.2 1.3,-4 1.3,-4 1.3,-3.8 1.2,-3.7 1.3,-3.7 1.3,-3.5 1.3,-3.4 1.2,-3.3 1.3,-3.1 1.3,-3 1.3,-2.9 1.3,-2.8 1.2,-2.6 1.3,-2.5 1.3,-2.3 1.3,-2.2 1.2,-2.1 1.3,-1.9 1.3,-1.7 1.3,-1.6 1.3,-1.5 1.2,-1.2 1.3,-1.2 1.3,-0.9 1.3,-0.8 1.2,-0.7 1.3,-0.4 1.3,-0.3 1.3,-0.2 1.3,0.1 1.2,0.2 1.3,0.3 1.3,0.6 1.3,0.7 1.2,0.8 1.3,1.1 1.3,1.2 1.3,1.4 1.2,1.5 1.3,1.7 1.3,1.9 1.3,2.1 1.3,2.2 1.2,2.3 1.3,2.6 1.3,2.7 1.3,2.8 1.2,3 1.3,3.2 1.3,3.3 1.3,3.4 1.3,3.7 1.2,3.7 1.3,3.9 1.3,4 1.3,4.2 1.2,4.3 1.3,4.5 1.3,4.5 1.3,4.7 1.2,4.8 1.3,5 1.3,5 1.3,5.1 1.3,5.3 1.2,5.4 1.3,5.4 1.3,5.6 1.3,5.6 1.2,5.7 1.3,5.8 1.3,5.9 1.3,6 1.3,6 1.2,6.1 1.3,6.1 1.3,6.2 1.3,6.3 1.2,6.2 1.3,6.4 1.3,6.3 1.3,6.4 1.3,6.5 1.2,6.4 1.3,6.4 1.3,6.5 1.3,6.5 1.2,6.4 1.3,6.5 1.3,6.5 1.3,6.4 1.2,6.4 1.3,6.4 1.3,6.4 1.3,6.3 1.3,6.3 1.2,6.3 1.3,6.2 1.3,6.1 1.3,6.1 1.2,6 1.3,6 1.3,5.9 1.3,5.8 1.3,5.7 1.2,5.7 1.3,5.5 1.3,5.5 1.3,5.4 1.2,5.3 1.3,5.1 1.3,5.1 1.3,5 1.2,4.8 1.3,4.7 1.3,4.6 1.3,4.5 1.3,4.3 1.2,4.3 1.3,4 1.3,4 1.3,3.8 1.2,3.7 1.3,3.5 1.3,3.4"
     style="fill:none;stroke:#0000ff;stroke-width:4"
     id="path114"
     sodipodi:nodetypes="cccccccccccccccccccccccccccccccccccccccccccccccccccccccccccccccccccccccccccccccccccccccccccccccccccccccccccccccccccccccccccccccccccccccccccccccccccccccccccccccccccccccccccccccccccccccccccccccccccccccccccccccccccccccccccccccccccccccccccccccccccccccccccccccccccccccccccccccccccccccccccccccccccccccccccccccccccccccccccccccccccccccccccccccccccccccccccccccccccccccccccccccccccccccccccccccccccccccccccccccccccccccccccccccccccccccccccccccccc" />
</svg>
