<?xml version="1.0" encoding="UTF-8" standalone="no"?>
<svg
   width="800"
   height="800"
   version="1.1"
   id="svg154"
   sodipodi:docname="Sphere_wireframe_10deg_6r.svg"
   inkscape:version="1.2.1 (1:1.2.1+202210291244+9c6d41e410)"
   xmlns:inkscape="http://www.inkscape.org/namespaces/inkscape"
   xmlns:sodipodi="http://sodipodi.sourceforge.net/DTD/sodipodi-0.dtd"
   xmlns:xlink="http://www.w3.org/1999/xlink"
   xmlns="http://www.w3.org/2000/svg"
   xmlns:svg="http://www.w3.org/2000/svg"
   xmlns:ns1="http://www.iki.fi/pav/software/textext/">
  <sodipodi:namedview
     id="namedview156"
     pagecolor="#ffffff"
     bordercolor="#666666"
     borderopacity="1.0"
     inkscape:showpageshadow="2"
     inkscape:pageopacity="0.0"
     inkscape:pagecheckerboard="0"
     inkscape:deskcolor="#d1d1d1"
     showgrid="false"
     inkscape:zoom="1.668772"
     inkscape:cx="257.37488"
     inkscape:cy="464.71297"
     inkscape:window-width="1920"
     inkscape:window-height="1035"
     inkscape:window-x="1920"
     inkscape:window-y="20"
     inkscape:window-maximized="1"
     inkscape:current-layer="svg154" />
  <defs
     id="defs20">
    <radialGradient
       id="b"
       cx="-.1"
       cy=".1"
       r="1.2"
       fx="-.3"
       fy=".6"
       gradientUnits="userSpaceOnUse">
      <stop
         offset="0"
         stop-color="#b6bbce"
         id="stop2" />
      <stop
         offset=".1"
         stop-color="#8a94ba"
         id="stop4" />
      <stop
         offset=".3"
         stop-color="#5f6c99"
         id="stop6" />
      <stop
         offset="1"
         stop-color="#22326b"
         id="stop8" />
    </radialGradient>
    <radialGradient
       id="a"
       cx=".1"
       cy="-.1"
       r="1.2"
       fx=".3"
       fy="-.6"
       gradientUnits="userSpaceOnUse">
      <stop
         offset="0"
         stop-color="#b6bbce"
         id="stop11" />
      <stop
         offset=".1"
         stop-color="#8a94ba"
         id="stop13" />
      <stop
         offset=".3"
         stop-color="#5f6c99"
         id="stop15" />
      <stop
         offset="1"
         stop-color="#22326b"
         id="stop17" />
    </radialGradient>
    <radialGradient
       inkscape:collect="always"
       xlink:href="#b"
       id="radialGradient462"
       gradientUnits="userSpaceOnUse"
       cx="-.1"
       cy=".1"
       fx="-.3"
       fy=".6"
       r="1.2"
       gradientTransform="matrix(400,0,0,-400,400,400)" />
    <radialGradient
       inkscape:collect="always"
       xlink:href="#b"
       id="radialGradient464"
       gradientUnits="userSpaceOnUse"
       cx="-.1"
       cy=".1"
       fx="-.3"
       fy=".6"
       r="1.2"
       gradientTransform="matrix(400,0,0,-400,400,400)" />
    <radialGradient
       inkscape:collect="always"
       xlink:href="#b"
       id="radialGradient466"
       gradientUnits="userSpaceOnUse"
       cx="-.1"
       cy=".1"
       fx="-.3"
       fy=".6"
       r="1.2"
       gradientTransform="matrix(400,0,0,-400,400,400)" />
    <radialGradient
       inkscape:collect="always"
       xlink:href="#b"
       id="radialGradient468"
       gradientUnits="userSpaceOnUse"
       cx="-.1"
       cy=".1"
       fx="-.3"
       fy=".6"
       r="1.2"
       gradientTransform="matrix(400,0,0,-400,400,400)" />
    <radialGradient
       inkscape:collect="always"
       xlink:href="#b"
       id="radialGradient470"
       gradientUnits="userSpaceOnUse"
       cx="-.1"
       cy=".1"
       fx="-.3"
       fy=".6"
       r="1.2"
       gradientTransform="matrix(400,0,0,-400,400,400)" />
    <radialGradient
       inkscape:collect="always"
       xlink:href="#b"
       id="radialGradient472"
       gradientUnits="userSpaceOnUse"
       cx="-.1"
       cy=".1"
       fx="-.3"
       fy=".6"
       r="1.2"
       gradientTransform="matrix(400,0,0,-400,400,400)" />
    <radialGradient
       inkscape:collect="always"
       xlink:href="#b"
       id="radialGradient474"
       gradientUnits="userSpaceOnUse"
       cx="-.1"
       cy=".1"
       fx="-.3"
       fy=".6"
       r="1.2"
       gradientTransform="matrix(400,0,0,-400,400,400)" />
    <radialGradient
       inkscape:collect="always"
       xlink:href="#b"
       id="radialGradient476"
       gradientUnits="userSpaceOnUse"
       cx="-.1"
       cy=".1"
       fx="-.3"
       fy=".6"
       r="1.2"
       gradientTransform="matrix(400,0,0,-400,400,400)" />
    <radialGradient
       inkscape:collect="always"
       xlink:href="#b"
       id="radialGradient478"
       gradientUnits="userSpaceOnUse"
       cx="-.1"
       cy=".1"
       fx="-.3"
       fy=".6"
       r="1.2"
       gradientTransform="matrix(400,0,0,-400,400,400)" />
    <radialGradient
       inkscape:collect="always"
       xlink:href="#b"
       id="radialGradient480"
       gradientUnits="userSpaceOnUse"
       cx="-.1"
       cy=".1"
       fx="-.3"
       fy=".6"
       r="1.2"
       gradientTransform="matrix(400,0,0,-400,400,400)" />
    <radialGradient
       inkscape:collect="always"
       xlink:href="#b"
       id="radialGradient482"
       gradientUnits="userSpaceOnUse"
       cx="-.1"
       cy=".1"
       fx="-.3"
       fy=".6"
       r="1.2"
       gradientTransform="matrix(400,0,0,-400,400,400)" />
    <radialGradient
       inkscape:collect="always"
       xlink:href="#b"
       id="radialGradient484"
       gradientUnits="userSpaceOnUse"
       cx="-.1"
       cy=".1"
       fx="-.3"
       fy=".6"
       r="1.2"
       gradientTransform="matrix(400,0,0,-400,400,400)" />
    <radialGradient
       inkscape:collect="always"
       xlink:href="#b"
       id="radialGradient486"
       gradientUnits="userSpaceOnUse"
       cx="-.1"
       cy=".1"
       fx="-.3"
       fy=".6"
       r="1.2"
       gradientTransform="matrix(400,0,0,-400,400,400)" />
    <radialGradient
       inkscape:collect="always"
       xlink:href="#b"
       id="radialGradient490"
       gradientUnits="userSpaceOnUse"
       cx="-.1"
       cy=".1"
       fx="-.3"
       fy=".6"
       r="1.2"
       gradientTransform="matrix(400,0,0,-400,400,400)" />
    <radialGradient
       inkscape:collect="always"
       xlink:href="#b"
       id="radialGradient494"
       gradientUnits="userSpaceOnUse"
       cx="-.1"
       cy=".1"
       fx="-.3"
       fy=".6"
       r="1.2"
       gradientTransform="matrix(400,0,0,-400,400,400)" />
    <radialGradient
       inkscape:collect="always"
       xlink:href="#b"
       id="radialGradient498"
       gradientUnits="userSpaceOnUse"
       cx="-.1"
       cy=".1"
       fx="-.3"
       fy=".6"
       r="1.2"
       gradientTransform="matrix(400,0,0,-400,400,400)" />
    <radialGradient
       inkscape:collect="always"
       xlink:href="#b"
       id="radialGradient502"
       gradientUnits="userSpaceOnUse"
       cx="-.1"
       cy=".1"
       fx="-.3"
       fy=".6"
       r="1.2"
       gradientTransform="matrix(400,0,0,-400,400,400)" />
    <radialGradient
       inkscape:collect="always"
       xlink:href="#b"
       id="radialGradient506"
       gradientUnits="userSpaceOnUse"
       cx="-.1"
       cy=".1"
       fx="-.3"
       fy=".6"
       r="1.2"
       gradientTransform="matrix(400,0,0,-400,400,400)" />
    <radialGradient
       inkscape:collect="always"
       xlink:href="#b"
       id="radialGradient510"
       gradientUnits="userSpaceOnUse"
       cx="-.1"
       cy=".1"
       fx="-.3"
       fy=".6"
       r="1.2"
       gradientTransform="matrix(400,0,0,-400,400,400)" />
    <radialGradient
       inkscape:collect="always"
       xlink:href="#b"
       id="radialGradient514"
       gradientUnits="userSpaceOnUse"
       cx="-.1"
       cy=".1"
       fx="-.3"
       fy=".6"
       r="1.2"
       gradientTransform="matrix(400,0,0,-400,400,400)" />
    <radialGradient
       inkscape:collect="always"
       xlink:href="#b"
       id="radialGradient518"
       gradientUnits="userSpaceOnUse"
       cx="-.1"
       cy=".1"
       fx="-.3"
       fy=".6"
       r="1.2"
       gradientTransform="matrix(400,0,0,-400,400,400)" />
    <radialGradient
       inkscape:collect="always"
       xlink:href="#b"
       id="radialGradient522"
       gradientUnits="userSpaceOnUse"
       cx="-.1"
       cy=".1"
       fx="-.3"
       fy=".6"
       r="1.2"
       gradientTransform="matrix(400,0,0,-400,400,400)" />
  </defs>
  <path
     d="m 512.104,783.972 c -71.536,20.884 -152.672,20.884 -224.208,0 -6.78,-1.984 -13.868,-4.244 -21.2,-6.84 41.128,14.54 86.868,22.132 133.304,22.132 46.436,0 92.176,-7.592 133.304,-22.132 -7.336,2.596 -14.42,4.86 -21.2,6.84 z"
     id="path90"
     style="fill:url(#radialGradient462);stroke-width:400" />
  <path
     d="M 651.052,711.404 C 589.308,761.184 497.204,790.04 400,790.04 c -97.204,0 -189.308,-28.856 -251.052,-78.636 -3.136,-2.528 -6.236,-5.104 -9.296,-7.728 40.84,35.012 96.824,60.964 160.504,74.392 64.952,13.696 134.736,13.696 199.688,0 63.68,-13.428 119.664,-39.38 160.504,-74.392 -3.06,2.624 -6.16,5.2 -9.296,7.728 z"
     id="path92"
     style="fill:url(#radialGradient464);stroke-width:400" />
  <path
     d="m 726.588,630.956 c -38.004,53.74 -106.068,96.116 -190.416,118.528 -87.26,23.188 -185.08,23.188 -272.344,0.004 C 179.48,727.072 111.416,684.696 73.412,630.956 a 399.42249,399.42249 0 0 1 -5.772,-8.388 c 37.216,55.576 106.22,99.684 192.56,123.064 89.44,24.224 190.16,24.224 279.6,0 86.34,-23.38 155.344,-67.488 192.56,-123.064 a 399.42249,399.42249 0 0 1 -5.772,8.388 z"
     id="path94"
     style="fill:url(#radialGradient466);stroke-width:400" />
  <path
     d="M 772.768,545.064 C 745.644,614.768 671.156,673.332 569.28,705 462.528,738.184 337.468,738.184 230.712,705 128.84,673.332 54.356,614.768 27.232,545.064 c -1.16,-2.976 -2.256,-5.904 -3.304,-8.788 19.008,52.448 65.016,99.452 130.86,133.66 69.052,35.88 155.736,55.504 245.212,55.504 89.472,0 176.156,-19.624 245.212,-55.5 65.844,-34.208 111.852,-81.216 130.86,-133.664 -1.048,2.884 -2.144,5.812 -3.304,8.788 z"
     id="path96"
     style="fill:url(#radialGradient468);stroke-width:400" />
  <path
     d="M 796.012,456.344 C 787.576,515.628 744.272,571 674.188,612.064 600.28,655.368 502.104,679.532 400,679.532 297.896,679.532 199.716,655.368 125.812,612.064 55.728,571 12.424,515.628 3.988,456.344 3.556,453.316 3.168,450.34 2.82,447.42 c 7.144,59.84 49.972,115.992 120.336,157.724 74.252,44.032 173.52,68.66 276.844,68.66 103.324,0 202.592,-24.628 276.844,-68.664 70.364,-41.728 113.192,-97.88 120.336,-157.72 -0.348,2.92 -0.736,5.896 -1.168,8.924 z"
     id="path98"
     style="fill:url(#radialGradient470);stroke-width:400" />
  <path
     d="m 798.676,367.484 c 5.152,63.144 -32.028,124.94 -103.376,171.732 -75.624,49.6 -182.848,77.896 -295.304,77.896 -112.452,0 -219.676,-28.296 -295.3,-77.896 C 33.348,492.42 -3.824,430.628 1.324,367.484 1.56,364.608 1.828,361.68 2.14,358.696 -4.436,422.012 31.972,484.28 103.252,531.528 178.844,581.636 286.74,610.284 400,610.284 c 113.26,0 221.156,-28.648 296.748,-78.756 71.28,-47.248 107.688,-109.512 101.112,-172.832 0.312,2.984 0.58,5.912 0.816,8.788 z"
     id="path100"
     style="fill:url(#radialGradient472);stroke-width:400" />
  <path
     d="m 781.948,281.192 c 15.472,49.736 1.364,101.04 -40.04,145.568 -44.16,47.496 -116.516,84.216 -203.796,103.404 -88.956,19.56 -187.268,19.56 -276.228,0 C 174.608,510.976 102.252,474.256 58.088,426.76 16.688,382.228 2.58,330.928 18.052,281.192 c 0.888,-2.86 1.792,-5.656 2.708,-8.388 -16.616,49.552 -3.436,100.892 37.388,145.564 43.564,47.668 115.74,84.624 203.112,103.976 89.296,19.776 188.18,19.776 277.48,0 87.372,-19.352 159.548,-56.304 203.112,-103.976 40.824,-44.672 54.004,-96.012 37.388,-145.564 0.948,2.84 1.852,5.636 2.708,8.388 z"
     id="path102"
     style="fill:url(#radialGradient474);stroke-width:400" />
  <path
     d="m 746.46,200.084 c 27.14,47.036 22.676,97.988 -12.564,143.32 -37.552,48.308 -107.22,86.604 -194.336,106.8 C 450.22,470.92 349.784,470.92 260.444,450.208 173.324,430.008 103.656,391.712 66.104,343.404 30.864,298.072 26.4,247.12 53.54,200.084 c 1.468,-2.544 2.992,-5.12 4.576,-7.728 -28.32,46.628 -24.9,97.428 9.612,142.748 36.756,48.272 105.976,86.644 192.884,106.9 89.172,20.784 189.6,20.784 278.772,0 86.908,-20.256 156.132,-58.628 192.888,-106.9 34.512,-45.32 37.932,-96.12 9.612,-142.748 1.524,2.508 3.052,5.084 4.576,7.728 z"
     id="path104"
     style="fill:url(#radialGradient476);stroke-width:400" />
  <path
     d="m 692.008,126.628 c 39.04,41.7 45.976,90.064 19.296,134.516 -28.276,47.124 -91.816,85.696 -175.176,106.308 -86.44,21.376 -185.812,21.376 -272.252,0 C 180.512,346.84 116.972,308.268 88.696,261.144 62.016,216.692 68.952,168.332 107.992,126.628 c 2.152,-2.296 4.336,-4.576 6.556,-6.836 C 74.292,160.8 66.084,208.78 91.736,253.06 c 27.184,46.924 89.932,85.48 172.756,106.112 85.964,21.416 185.048,21.42 271.012,0.004 82.824,-20.636 145.572,-59.192 172.76,-106.116 25.652,-44.28 17.444,-92.256 -22.812,-133.268 2.212,2.252 4.396,4.532 6.556,6.836 z"
     id="path106"
     style="fill:url(#radialGradient478);stroke-width:400" />
  <path
     d="m 615.564,63.056 c 52.196,33.392 73.58,77.176 58.456,119.604 -15.824,44.404 -69.892,82.496 -146.504,103.168 -80.02,21.596 -175.012,21.596 -255.036,0 -76.608,-20.672 -130.676,-58.768 -146.5,-103.168 -15.124,-42.428 6.26,-86.212 58.456,-119.604 3.056,-1.956 6.136,-3.868 9.244,-5.74 -44.212,26.62 -68.052,60.84 -66.968,96.084 1.132,36.648 29.128,71.684 78.228,97.852 51.388,27.388 121.684,42.824 195.06,42.824 73.376,0 143.672,-15.436 195.06,-42.824 49.1,-26.168 77.096,-61.204 78.228,-97.852 1.084,-35.244 -22.756,-69.464 -66.968,-96.084 3.108,1.872 6.188,3.784 9.244,5.74 z"
     id="path108"
     style="fill:url(#radialGradient480);stroke-width:400" />
  <path
     d="m 481.74489,21.559262 c 59.764,14.512 103.556,42 119.264,74.828 15.208,31.779998 2.576,65.375998 -34.62,92.011998 -41.268,29.556 -107.952,47.112 -179.024,47.112 -71.076,0 -137.76,-17.556 -179.032,-47.108 -37.196,-26.64 -49.828,-60.236 -34.62,-92.015998 15.708,-32.828 59.5,-60.316 119.264,-74.828 6.564,-1.596 13.492,-3.1 20.768,-4.464 -62.744,11.748 -111.068,37.8 -130.612,70.368 -18.74,31.239998 -8.992,65.127998 26.576,92.307998 39.604,30.264 106.264,48.46 177.652,48.46 71.392,0 138.048,-18.196 177.652,-48.46 35.568,-27.18 45.316,-61.068 26.576,-92.303998 -19.544,-32.572 -67.868,-58.624 -130.612,-70.372 6.636,1.244 13.572,2.716 20.768,4.464 z"
     id="path110"
     style="fill:url(#radialGradient482);stroke-width:400" />
  <path
     d="m 406.332,3.572 c 47.496,0.988 91.368,12.988 118.696,32.46 25.736,18.336 34.128,41.4 22.976,63.1 -11.492,22.356 -42.528,40.932 -84.48,50.536 -44.532,10.192 -96.132,9.08 -138.752,-2.988 -39.928,-11.308 -67.592,-31 -75.38,-53.624 C 241.82,71.06 253.796,48.5 282.2,31.288 312.64,12.84 358.576,2.58 406.332,3.572 Z m -0.276,1.02 c -45.548,-0.944 -89.352,8.82 -118.388,26.38 -27.12,16.4 -38.54,37.908 -31.284,58.864 7.448,21.524 33.82,40.252 71.868,51.008 40.64,11.492 89.844,12.556 132.316,2.852 39.972,-9.132 69.56,-26.792 80.548,-48.056 C 551.8,74.964 543.812,52.98 519.248,35.504 493.188,16.964 451.352,5.536 406.056,4.592 Z"
     id="path112"
     style="fill:url(#radialGradient484);stroke-width:400" />
  <path
     d="m 403.392,19.852 c 28.82,0.604 54.732,8.848 67.8,21.548 12.324,11.98 11.472,26.24 -2.26,37.84 -14.824,12.524 -42.368,20.028 -71.728,19.52 -29.612,-0.512 -56.2,-9.088 -69.092,-22.256 -11.856,-12.108 -10.428,-26.368 3.796,-37.84 15.144,-12.216 42.508,-19.42 71.484,-18.812 z m -0.312,2.38 c -26.26,-0.552 -51.056,5.972 -64.776,17.036 -12.892,10.392 -14.168,23.316 -3.392,34.28 11.7,11.904 35.78,19.652 62.588,20.108 26.548,0.452 51.456,-6.316 64.896,-17.62 12.484,-10.504 13.28,-23.424 2.116,-34.284 C 452.68,30.248 429.2,22.78 403.08,22.232 Z"
     id="path114"
     style="fill:url(#radialGradient486);stroke-width:400" />
  <path
     d="M 438.22,1.832 C 421.428,0.22 400.6,32.94 379.54,94.124 354.364,167.276 331.1,274.58 315.708,388.612 c -15.388,114.032 -21.404,223.668 -16.52,300.88 4.084,64.588 15.496,101.668 32.112,104.564 2.36,0.412 4.724,0.804 7.096,1.172 -16.412,-2.56 -27.628,-39.384 -31.568,-103.84 -4.72,-77.236 1.424,-187.22 16.872,-301.672 C 339.144,275.264 362.376,167.58 387.4,94.352 408.288,33.236 428.868,0.696 445.368,2.58 442.988,2.308 440.604,2.06 438.22,1.832 Z"
     id="path118"
     style="fill:url(#radialGradient490);stroke-width:400" />
  <path
     d="M 510.7,15.624 C 469.812,3.848 417.844,26.388 364.728,78.988 306.296,136.856 251.224,226.4 212.152,327.152 173.08,427.9 153.376,531.156 157.512,613.292 c 3.764,74.656 26.944,126.344 65.08,145.216 2.388,1.18 4.748,2.316 7.072,3.412 -38.616,-18.176 -62.112,-69.86 -65.888,-145.052 -4.128,-82.296 15.7,-185.984 54.944,-287.176 C 257.964,228.5 313.232,138.56 371.768,80.568 425.252,27.584 477.452,5.256 518.224,17.872 515.768,17.112 513.26,16.36 510.7,15.624 Z"
     id="path122"
     style="fill:url(#radialGradient494);stroke-width:400" />
  <path
     d="M 599.384,53.236 C 545.928,22.5 474.264,21.432 397.732,50.264 317.308,80.564 237.424,141.648 174.436,221.044 111.448,300.436 70.128,392.12 58.912,477.332 c -10.668,81.084 6.668,150.632 48.76,195.696 2.132,2.284 4.252,4.5 6.356,6.648 C 70.6,635.272 52.268,565.568 62.552,483.78 73.364,397.784 114.992,304.888 178.772,224.496 242.556,144.1 323.544,82.432 404.832,52.344 482.136,23.728 554.184,25.72 607.308,57.912 c -2.676,-1.62 -5.316,-3.18 -7.924,-4.676 z"
     id="path126"
     style="fill:url(#radialGradient498);stroke-width:400" />
  <path
     d="M 708.856,145.82 C 663.496,90.7 592.832,55.664 509.188,46.844 423.38,37.796 329.592,56.932 245.004,100.744 160.416,144.556 90.672,210.116 48.556,285.424 7.5,358.828 -4.652,436.76 14.192,505.612 c 0.972,3.548 1.996,7.084 3.064,10.608 C -3.772,446.972 7.152,367.808 48.08,292.956 90.084,216.136 160.828,149.1 246.948,104.496 333.068,59.888 428.64,40.788 515.62,50.804 c 84.752,9.756 155.708,46.512 200.136,103.64 -2.26,-2.908 -4.56,-5.78 -6.9,-8.624 z"
     id="path130"
     style="fill:url(#radialGradient502);stroke-width:400" />
  <path
     d="M 794.58,334.364 C 782.548,262.048 739.82,194.424 673.58,142.904 605.864,90.232 517.86,57.716 425.028,51.056 332.2,44.4 240.456,64.024 165.912,106.492 92.996,148.032 41.056,208.864 18.828,278.728 c -1.204,3.78 -2.352,7.58 -3.44,11.392 20.468,-71.648 72.028,-134.488 145.716,-177.556 75.36,-44.048 168.908,-64.532 263.648,-57.736 94.744,6.792 184.412,40.416 252.716,94.768 66.788,53.144 108.852,122.7 118.888,196.536 -0.532,-3.928 -1.128,-7.852 -1.776,-11.768 z"
     id="path134"
     style="fill:url(#radialGradient506);stroke-width:400" />
  <path
     d="M 768.256,556.16 C 795.544,491.816 792.72,413.968 760.268,336.472 726.896,256.792 664.464,182.876 584.68,128.592 504.9,74.304 413.228,43.36 326.856,41.564 242.852,39.82 169.4,65.772 119.56,114.776 a 388.31809,388.31809 0 0 0 -7.448,7.52 c 49.12,-50.924 122.964,-78.392 208.052,-77.372 87.532,1.052 180.856,32.18 261.98,87.38 81.128,55.2 144.34,130.584 177.452,211.62 32.184,78.772 33.736,157.544 4.4,221.928 1.464,-3.212 2.884,-6.44 4.26,-9.692 z"
     id="path138"
     style="fill:url(#radialGradient510);stroke-width:400" />
  <path
     d="m 663.632,700.828 c 43.452,-38.076 64.412,-103.46 58.892,-183.82 C 716.684,431.92 681.6,336.468 624.632,250.728 567.672,164.996 493.284,95.676 417.12,57.324 345.188,21.1 276.8,15.084 224.864,40.38 222.18,41.688 219.556,43 217,44.316 268.652,17.744 337.34,22.992 409.9,59.1 c 76.888,38.26 152.204,108.228 209.812,194.936 57.604,86.712 92.908,183.256 98.38,268.968 5.16,80.88 -16.624,146.236 -61.136,183.548 2.288,-1.92 4.512,-3.828 6.676,-5.724 z"
     id="path142"
     style="fill:url(#radialGradient514);stroke-width:400" />
  <path
     d="m 549.488,771.016 c 33.92,-13.668 55.408,-61.148 60.32,-133.432 C 615.3,556.82 599.652,451.816 566.516,347.248 533.376,242.664 485.684,147.8 434.672,84.936 389.024,28.676 344.112,2.24 308.516,10.604 c -2.436,0.572 -4.904,1.176 -7.408,1.812 35.328,-9.012 80.164,17.084 125.88,73.348 51.168,62.968 99.14,158.412 132.504,263.688 33.36,105.276 49.12,210.932 43.56,291.88 -4.968,72.328 -26.588,119.488 -60.664,132.468 2.336,-0.892 4.704,-1.82 7.1,-2.784 z"
     id="path146"
     style="fill:url(#radialGradient518);stroke-width:400" />
  <path
     d="M 442.508,797.736 C 456.844,796.204 464.728,726.464 463.42,612.22 461.904,480.06 448.368,311.156 428.816,180.428 411.912,67.412 393.02,-0.2 378.62,0.572 a 417.80832,417.80832 0 0 0 -7.104,0.444 c 13.996,-1 32.544,66.528 49.26,179.604 19.356,130.944 32.924,300.268 34.672,432.628 1.508,114.308 -6.044,183.936 -20.024,185.18 2.352,-0.208 4.716,-0.44 7.084,-0.692 z"
     id="path150"
     style="fill:url(#radialGradient522);stroke-width:400" />
  <path
     style="fill:none;stroke:#ff0000;stroke-width:8;stroke-linecap:round;stroke-linejoin:miter;stroke-dasharray:none;stroke-opacity:1"
     d="m 311.27042,756.50395 c 22.92021,7.67198 130.45131,8.116 138.20953,5.41605"
     id="path688"
     sodipodi:nodetypes="cc" />
  <path
     style="fill:none;stroke:#ff0000;stroke-width:8;stroke-linecap:round;stroke-linejoin:miter;stroke-dasharray:none;stroke-opacity:1"
     d="m 305.47075,533.8054 c 21.70342,6.27897 134.07628,11.0286 151.05001,2.4706"
     id="path1341"
     sodipodi:nodetypes="cc" />
  <path
     style="fill:none;stroke:#ff0000;stroke-width:8;stroke-linecap:round;stroke-linejoin:miter;stroke-dasharray:none;stroke-opacity:1"
     d="m 324.84069,374.52932 c 70.29393,8.60439 126.1233,2.89308 124.78319,1.79382"
     id="path1343"
     sodipodi:nodetypes="cc" />
  <rect
     style="fill:#ffffff;stroke:#000000;stroke-width:4;stroke-linecap:round;stroke-linejoin:round;stroke-dasharray:none"
     id="rect1755"
     width="80.529106"
     height="86.621704"
     x="207.78661"
     y="491.72058"
     rx="1.8797699"
     ry="0.71428609" />
  <g
     transform="matrix(7.99998,0,0,7.99998,220.74271,506.46604)"
     ns1:version="1.8.2"
     ns1:texconverter="pdflatex"
     ns1:pdfconverter="inkscape"
     ns1:text="A"
     ns1:preamble="/home/mpnerem/.config/inkscape/extensions/circuitSymbols/circuitSymbolsPreamble.tex"
     ns1:scale="6.0"
     ns1:alignment="middle center"
     ns1:stroke-to-path="0"
     ns1:inkscapeversion="1.2.1"
     ns1:jacobian_sqrt="7.99998"
     id="g1535">
    <defs
       id="id-00d98525-62ed-46a3-9663-e634ead11f06">
      <g
         id="id-7f3f269e-fc98-4440-a3d9-792cd2ab5153">
        <symbol
           overflow="visible"
           id="id-4da12d5e-7332-475a-a37e-3e71b2f51eae">
          <path
             style="stroke:none"
             d=""
             id="id-d0feb6c9-42a1-4606-a860-5979af5c3a0d" />
        </symbol>
        <symbol
           overflow="visible"
           id="id-42b7b847-d9c0-49ae-89f3-c066e255bbb7">
          <path
             style="stroke:none"
             d="m 3.96875,-6.9375 c -0.046875,-0.125 -0.078125,-0.203125 -0.234375,-0.203125 -0.15625,0 -0.1875,0.0625 -0.234375,0.203125 L 1.4375,-0.984375 C 1.25,-0.46875 0.859375,-0.3125 0.3125,-0.3125 V 0 c 0.234375,-0.015625 0.671875,-0.03125 1.015625,-0.03125 0.3125,0 0.828125,0.015625 1.15625,0.03125 v -0.3125 c -0.5,0 -0.75,-0.25 -0.75,-0.5 0,-0.03125 0.015625,-0.140625 0.015625,-0.15625 L 2.21875,-2.265625 H 4.671875 L 5.203125,-0.75 c 0.015625,0.046875 0.03125,0.109375 0.03125,0.140625 0,0.296875 -0.5625,0.296875 -0.828125,0.296875 V 0 c 0.359375,-0.03125 1.0625,-0.03125 1.4375,-0.03125 0.421875,0 0.890625,0.015625 1.296875,0.03125 V -0.3125 H 6.96875 C 6.375,-0.3125 6.234375,-0.375 6.125,-0.703125 Z m -0.53125,1.109375 1.125,3.25 H 2.328125 Z m 0,0"
             id="id-09d546d8-b504-4875-8d3e-cc3e429159c1" />
        </symbol>
      </g>
    </defs>
    <g
       id="id-5aef7cc4-4e73-46bb-96cd-4c416e574399"
       transform="translate(-149.025,-127.624)">
      <g
         style="fill:#000000;fill-opacity:1"
         id="id-82d95e9f-a913-415a-a745-5ab8a55387a7">
        <g
           transform="translate(148.712,134.765)"
           id="g1686">
          <path
             style="stroke:none"
             d="m 3.96875,-6.9375 c -0.046875,-0.125 -0.078125,-0.203125 -0.234375,-0.203125 -0.15625,0 -0.1875,0.0625 -0.234375,0.203125 L 1.4375,-0.984375 C 1.25,-0.46875 0.859375,-0.3125 0.3125,-0.3125 V 0 c 0.234375,-0.015625 0.671875,-0.03125 1.015625,-0.03125 0.3125,0 0.828125,0.015625 1.15625,0.03125 v -0.3125 c -0.5,0 -0.75,-0.25 -0.75,-0.5 0,-0.03125 0.015625,-0.140625 0.015625,-0.15625 L 2.21875,-2.265625 H 4.671875 L 5.203125,-0.75 c 0.015625,0.046875 0.03125,0.109375 0.03125,0.140625 0,0.296875 -0.5625,0.296875 -0.828125,0.296875 V 0 c 0.359375,-0.03125 1.0625,-0.03125 1.4375,-0.03125 0.421875,0 0.890625,0.015625 1.296875,0.03125 V -0.3125 H 6.96875 C 6.375,-0.3125 6.234375,-0.375 6.125,-0.703125 Z m -0.53125,1.109375 1.125,3.25 H 2.328125 Z m 0,0"
             id="id-f830f23e-ff99-47a9-9569-15fd71ddce20" />
        </g>
      </g>
    </g>
  </g>
  <rect
     style="fill:#ffffff;stroke:#000000;stroke-width:4;stroke-linecap:round;stroke-linejoin:round;stroke-dasharray:none"
     id="rect1757"
     width="80.529106"
     height="86.621704"
     x="467.35925"
     y="337.50006"
     rx="1.8797699"
     ry="0.71428609" />
  <g
     transform="matrix(7.99998,0,0,7.99998,483.124,353.561)"
     ns1:version="1.8.2"
     ns1:texconverter="pdflatex"
     ns1:pdfconverter="inkscape"
     ns1:text="B"
     ns1:preamble="/home/mpnerem/.config/inkscape/extensions/circuitSymbols/circuitSymbolsPreamble.tex"
     ns1:scale="6.0"
     ns1:alignment="middle center"
     ns1:stroke-to-path="0"
     ns1:inkscapeversion="1.2.1"
     ns1:jacobian_sqrt="7.99998"
     id="g1779">
    <defs
       id="id-d6285484-a516-4325-954b-487b51f45928">
      <g
         id="id-e90314f3-8ee3-4406-b440-d807d155d187">
        <symbol
           overflow="visible"
           id="id-637c968a-10ed-41ed-9cf7-866b60884ada">
          <path
             style="stroke:none"
             d=""
             id="id-c9268fc4-80d6-47a4-ba0a-7997d5675d17" />
        </symbol>
        <symbol
           overflow="visible"
           id="id-d7497dc6-9f31-4bca-a5c2-a0612355293b">
          <path
             style="stroke:none"
             d="m 2.21875,-3.65625 v -2.4375 C 2.21875,-6.4375 2.234375,-6.5 2.703125,-6.5 H 3.9375 c 0.96875,0 1.3125,0.84375 1.3125,1.375 0,0.640625 -0.484375,1.46875 -1.59375,1.46875 z M 4.5625,-3.5625 C 5.53125,-3.75 6.21875,-4.390625 6.21875,-5.125 6.21875,-5.984375 5.296875,-6.8125 4,-6.8125 H 0.359375 V -6.5 H 0.59375 c 0.765625,0 0.796875,0.109375 0.796875,0.46875 v 5.25 c 0,0.359375 -0.03125,0.46875 -0.796875,0.46875 H 0.359375 V 0 h 3.90625 c 1.328125,0 2.21875,-0.890625 2.21875,-1.828125 0,-0.859375 -0.8125,-1.609375 -1.921875,-1.734375 z m -0.609375,3.25 h -1.25 c -0.46875,0 -0.484375,-0.0625 -0.484375,-0.390625 v -2.71875 h 1.875 C 5.078125,-3.421875 5.5,-2.5 5.5,-1.828125 5.5,-1.125 4.96875,-0.3125 3.953125,-0.3125 Z m 0,0"
             id="id-faca1d51-fe2c-4bb4-b78d-a8170f06f28f" />
        </symbol>
      </g>
    </defs>
    <g
       id="id-b76a1121-7cf3-4781-bfed-aef0dba17c33"
       transform="translate(-149.071,-127.953)">
      <g
         style="fill:#000000;fill-opacity:1"
         id="id-7ddfa3da-386c-46c0-814e-d5b4379d47f3">
        <g
           transform="translate(148.712,134.765)"
           id="g1944">
          <path
             style="stroke:none"
             d="m 2.21875,-3.65625 v -2.4375 C 2.21875,-6.4375 2.234375,-6.5 2.703125,-6.5 H 3.9375 c 0.96875,0 1.3125,0.84375 1.3125,1.375 0,0.640625 -0.484375,1.46875 -1.59375,1.46875 z M 4.5625,-3.5625 C 5.53125,-3.75 6.21875,-4.390625 6.21875,-5.125 6.21875,-5.984375 5.296875,-6.8125 4,-6.8125 H 0.359375 V -6.5 H 0.59375 c 0.765625,0 0.796875,0.109375 0.796875,0.46875 v 5.25 c 0,0.359375 -0.03125,0.46875 -0.796875,0.46875 H 0.359375 V 0 h 3.90625 c 1.328125,0 2.21875,-0.890625 2.21875,-1.828125 0,-0.859375 -0.8125,-1.609375 -1.921875,-1.734375 z m -0.609375,3.25 h -1.25 c -0.46875,0 -0.484375,-0.0625 -0.484375,-0.390625 v -2.71875 h 1.875 C 5.078125,-3.421875 5.5,-2.5 5.5,-1.828125 5.5,-1.125 4.96875,-0.3125 3.953125,-0.3125 Z m 0,0"
             id="id-d18a1e46-bd42-4af5-9b59-c44192523143" />
        </g>
      </g>
    </g>
  </g>
  <rect
     style="fill:#ffffff;stroke:#000000;stroke-width:4;stroke-linecap:round;stroke-linejoin:round;stroke-dasharray:none"
     id="rect1961"
     width="80.529106"
     height="86.621704"
     x="468.13516"
     y="697.81354"
     rx="1.8797699"
     ry="0.71428609" />
  <g
     transform="matrix(7.99998 0 0 7.99998 484.15 712.125)"
     ns1:version="1.8.2"
     ns1:texconverter="pdflatex"
     ns1:pdfconverter="inkscape"
     ns1:text="C"
     ns1:preamble="/home/mpnerem/.config/inkscape/extensions/circuitSymbols/circuitSymbolsPreamble.tex"
     ns1:scale="6.0"
     ns1:alignment="middle center"
     ns1:stroke-to-path="0"
     ns1:inkscapeversion="1.2.1"
     ns1:jacobian_sqrt="7.99998"
     id="g1983">
    <defs
       id="id-f427c534-4f29-4ca3-87ee-6b0a82e09546">
      <g
         id="id-c54f035e-b4ac-4e8c-9505-09378ea0cb85">
        <symbol
           overflow="visible"
           id="id-79926312-91c9-481f-97c6-c620238a5f20">
          <path
             style="stroke:none"
             d=""
             id="id-ef710178-001f-45e7-9a85-eecad827e2d6" />
        </symbol>
        <symbol
           overflow="visible"
           id="id-a8f73d41-6d21-4661-a71d-1fe6dcd2d963">
          <path
             style="stroke:none"
             d="m 0.5625,-3.40625 c 0,2.0625 1.609375,3.625 3.46875,3.625 1.625,0 2.59375,-1.390625 2.59375,-2.546875 C 6.625,-2.421875 6.625,-2.5 6.5,-2.5 6.390625,-2.5 6.390625,-2.4375 6.375,-2.328125 6.296875,-0.90625 5.234375,-0.09375 4.140625,-0.09375 c -0.609375,0 -2.5625,-0.328125 -2.5625,-3.3125 0,-2.96875 1.953125,-3.3125 2.5625,-3.3125 1.078125,0 1.96875,0.90625 2.171875,2.359375 C 6.328125,-4.21875 6.328125,-4.1875 6.46875,-4.1875 6.625,-4.1875 6.625,-4.21875 6.625,-4.421875 V -6.78125 c 0,-0.171875 0,-0.25 -0.109375,-0.25 -0.03125,0 -0.078125,0 -0.15625,0.125 l -0.5,0.734375 C 5.5,-6.53125 4.984375,-7.03125 4.03125,-7.03125 c -1.875,0 -3.46875,1.59375 -3.46875,3.625 z m 0,0"
             id="id-ea53c5f0-852d-4e6c-828f-3e8cf806d72f" />
        </symbol>
      </g>
    </defs>
    <g
       id="id-363675c2-4483-4196-9efd-8c49ffed4379"
       transform="translate(-149.275, -127.734)">
      <g
         style="fill:#000000;fill-opacity:1"
         id="id-57689b0a-1c39-49a1-8422-eb1093f4a4ac">
        <g
           transform="translate(148.712, 134.765)"
           id="g2172">
          <path
             style="stroke:none"
             d="m 0.5625,-3.40625 c 0,2.0625 1.609375,3.625 3.46875,3.625 1.625,0 2.59375,-1.390625 2.59375,-2.546875 C 6.625,-2.421875 6.625,-2.5 6.5,-2.5 6.390625,-2.5 6.390625,-2.4375 6.375,-2.328125 6.296875,-0.90625 5.234375,-0.09375 4.140625,-0.09375 c -0.609375,0 -2.5625,-0.328125 -2.5625,-3.3125 0,-2.96875 1.953125,-3.3125 2.5625,-3.3125 1.078125,0 1.96875,0.90625 2.171875,2.359375 C 6.328125,-4.21875 6.328125,-4.1875 6.46875,-4.1875 6.625,-4.1875 6.625,-4.21875 6.625,-4.421875 V -6.78125 c 0,-0.171875 0,-0.25 -0.109375,-0.25 -0.03125,0 -0.078125,0 -0.15625,0.125 l -0.5,0.734375 C 5.5,-6.53125 4.984375,-7.03125 4.03125,-7.03125 c -1.875,0 -3.46875,1.59375 -3.46875,3.625 z m 0,0"
             id="id-cadc2246-0b02-445e-9ce2-c8d720a41e80" />
        </g>
      </g>
    </g>
  </g>
</svg>
