<?xml version="1.0" encoding="UTF-8" standalone="no"?>
<!-- Created with Inkscape (http://www.inkscape.org/) -->
<svg xmlns:dc="http://purl.org/dc/elements/1.1/" xmlns:cc="http://creativecommons.org/ns#" xmlns:rdf="http://www.w3.org/1999/02/22-rdf-syntax-ns#" xmlns:svg="http://www.w3.org/2000/svg" xmlns="http://www.w3.org/2000/svg" xmlns:sodipodi="http://sodipodi.sourceforge.net/DTD/sodipodi-0.dtd" xmlns:inkscape="http://www.inkscape.org/namespaces/inkscape" version="1.0" width="200.80103" height="200.86415" id="svg3195" inkscape:version="0.48.2 r9819" sodipodi:docname="spherical_trigonometry_basic_triangle.svg">
  <metadata id="metadata3061">
    <rdf:RDF>
      <cc:Work rdf:about="">
        <dc:format>image/svg+xml</dc:format>
        <dc:type rdf:resource="http://purl.org/dc/dcmitype/StillImage"/>
        <dc:title/>
      </cc:Work>
    </rdf:RDF>
  </metadata>
  <sodipodi:namedview pagecolor="#ffffff" bordercolor="#666666" borderopacity="1" objecttolerance="10" gridtolerance="10" guidetolerance="10" inkscape:pageopacity="0" inkscape:pageshadow="2" inkscape:window-width="1280" inkscape:window-height="948" id="namedview3059" showgrid="false" inkscape:zoom="1.4142136" inkscape:cx="164.8512" inkscape:cy="142.20682" inkscape:window-x="-4" inkscape:window-y="-4" inkscape:window-maximized="1" inkscape:current-layer="svg3195" showguides="true" inkscape:guide-bbox="true" fit-margin-top="0" fit-margin-left="0" fit-margin-right="0" fit-margin-bottom="0" inkscape:showpageshadow="false">
    <sodipodi:guide orientation="0,1" position="21.812505,1.0997026" id="guide4436"/>
  </sodipodi:namedview>
  <defs id="defs3197">
    <filter id="filter3286" color-interpolation-filters="sRGB">
      <feGaussianBlur id="feGaussianBlur3288" stdDeviation="0.11117386" inkscape:collect="always"/>
    </filter>
  </defs>
  <path inkscape:connector-curvature="0" id="path3213" style="fill:none;stroke:#000000;stroke-width:1.625;stroke-linecap:butt;stroke-linejoin:round;stroke-miterlimit:4;stroke-opacity:1;stroke-dasharray:none;stroke-dashoffset:5.4" d="m 199.98852,100.43207 a 99.588015,99.588015 0 1 1 -199.176015,0 99.588015,99.588015 0 1 1 199.176015,0 z"/>
  <g style="font-size:17.44412804px;font-style:normal;font-weight:normal;text-align:center;text-anchor:middle;fill:#000000;fill-opacity:1;stroke:none;font-family:Arial" id="text3245" transform="translate(-94.687496,205.26444)">
    <path d="m 115.41195,-48.764637 0,-12.486861 4.68471,0 c 0.95396,1.2e-5 1.71913,0.126357 2.2955,0.379035 0.57635,0.252702 1.02779,0.641674 1.3543,1.166917 0.3265,0.525265 0.48976,1.074652 0.48977,1.648163 -1e-5,0.533781 -0.14481,1.036321 -0.4344,1.507622 -0.28961,0.471317 -0.72685,0.851771 -1.31172,1.141364 0.75522,0.221465 1.33584,0.59908 1.74186,1.132847 0.406,0.533777 0.609,1.164081 0.60901,1.890916 -1e-5,0.584881 -0.12352,1.12859 -0.37052,1.631128 -0.24702,0.502542 -0.55223,0.890094 -0.91564,1.162658 -0.36343,0.272565 -0.81912,0.478408 -1.36708,0.617529 -0.54798,0.139121 -1.21945,0.208682 -2.01443,0.208682 z m 1.65243,-7.239995 2.70009,0 c 0.73251,8e-6 1.25776,-0.04826 1.57576,-0.144799 0.4202,-0.124918 0.73677,-0.332181 0.94972,-0.621788 0.21293,-0.289592 0.3194,-0.653011 0.31941,-1.090258 -10e-6,-0.414516 -0.0994,-0.779354 -0.29812,-1.094517 -0.19875,-0.315142 -0.48267,-0.530922 -0.85176,-0.647341 -0.36911,-0.116397 -1.00225,-0.1746 -1.89944,-0.174611 l -2.49566,0 z m 0,5.766443 3.10893,0 c 0.53377,2e-6 0.90855,-0.01987 1.12433,-0.05962 0.38045,-0.06814 0.69844,-0.181708 0.95398,-0.340706 0.25552,-0.158994 0.46562,-0.39039 0.6303,-0.694188 0.16467,-0.303793 0.24701,-0.654435 0.24702,-1.051928 -1e-5,-0.465627 -0.11926,-0.870215 -0.35775,-1.213764 -0.2385,-0.34354 -0.56927,-0.584873 -0.9923,-0.724 -0.42305,-0.139115 -1.03206,-0.208676 -1.82703,-0.208682 l -2.88748,0 z" id="path4520" inkscape:connector-curvature="0"/>
  </g>
  <g style="font-size:17.44412804px;font-style:normal;font-weight:normal;text-align:center;text-anchor:middle;fill:#000000;fill-opacity:1;stroke:none;font-family:Arial" id="text3249" transform="translate(6.312505,75.264443)">
    <path d="m 97.148381,-48.416546 4.795429,-12.486861 1.78019,0 5.11058,12.486861 -1.88239,0 -1.45652,-3.781832 -5.22132,0 -1.371335,3.781832 z m 3.602959,-5.12762 4.23327,0 -1.3032,-3.458162 c -0.39749,-1.050499 -0.69277,-1.913619 -0.88583,-2.589362 -0.159,0.800668 -0.3833,1.595647 -0.6729,2.384939 z" id="path4517" inkscape:connector-curvature="0"/>
  </g>
  <g style="font-size:17.44412804px;font-style:normal;font-weight:normal;text-align:center;text-anchor:middle;fill:#000000;fill-opacity:1;stroke:none;font-family:Arial" id="text3253" transform="translate(40.812505,195.76444)">
    <path d="m 144.51938,-53.177605 1.65243,0.417364 c -0.3464,1.357147 -0.96961,2.392039 -1.86962,3.10468 -0.90004,0.712643 -2.00024,1.068964 -3.30059,1.068964 -1.34579,0 -2.44031,-0.273984 -3.28355,-0.821952 -0.84325,-0.547967 -1.48491,-1.341526 -1.92499,-2.380681 -0.44008,-1.039148 -0.66012,-2.154957 -0.66012,-3.347432 0,-1.300352 0.24844,-2.434617 0.7453,-3.402798 0.49686,-0.968161 1.20382,-1.703516 2.12089,-2.206069 0.91706,-0.502528 1.9264,-0.753798 3.02802,-0.753811 1.24925,1.3e-5 2.29976,0.318004 3.15153,0.953976 0.85175,0.635995 1.44515,1.530346 1.78019,2.683057 l -1.62687,0.383294 c -0.28961,-0.908539 -0.70982,-1.570075 -1.26061,-1.984611 -0.55082,-0.414514 -1.24359,-0.621776 -2.07831,-0.621788 -0.95966,1.2e-5 -1.76174,0.229988 -2.40623,0.689929 -0.64451,0.459963 -1.09736,1.077491 -1.35857,1.852587 -0.26121,0.775113 -0.39181,1.574351 -0.39181,2.397716 0,1.061871 0.15474,1.988874 0.46421,2.78101 0.30948,0.792143 0.79072,1.384119 1.44374,1.775928 0.65302,0.391813 1.35998,0.587718 2.1209,0.587717 0.92557,1e-6 1.7092,-0.266885 2.35087,-0.800658 0.64165,-0.53377 1.07605,-1.32591 1.30319,-2.376422 z" id="path4514" inkscape:connector-curvature="0"/>
  </g>
  <g style="font-size:20.2460289px;font-style:normal;font-variant:normal;font-weight:normal;font-stretch:normal;text-align:center;line-height:125%;writing-mode:lr-tb;text-anchor:middle;fill:#000000;fill-opacity:1;stroke:none;font-family:Arial;-inkscape-font-specification:Arial" id="text3263" transform="translate(-25.687495,125.76444)">
    <path d="m 182.83971,-51.034931 -1.65092,0 0,-14.492519 1.77943,0 0,5.170251 c 0.75132,-0.942432 1.71024,-1.413653 2.87676,-1.413664 0.64586,1.1e-5 1.25713,0.130174 1.83381,0.390488 0.57666,0.260335 1.05117,0.626107 1.42355,1.097319 0.37235,0.47123 0.66398,1.03966 0.87489,1.705293 0.21088,0.665648 0.31633,1.377421 0.31634,2.135323 -10e-6,1.799211 -0.44487,3.189806 -1.33458,4.171789 -0.88972,0.981986 -1.95738,1.472978 -3.20298,1.472978 -1.23902,0 -2.21112,-0.517354 -2.9163,-1.552064 z m -0.0198,-5.328423 c -1e-5,1.258791 0.17135,2.168279 0.51406,2.728469 0.56019,0.916082 1.31809,1.374121 2.27372,1.37412 0.77767,10e-7 1.4499,-0.337762 2.0167,-1.01329 0.56677,-0.675524 0.85016,-1.682222 0.85017,-3.020099 -1e-5,-1.370818 -0.27187,-2.382459 -0.81557,-3.034927 -0.54373,-0.652451 -1.20113,-0.97868 -1.97221,-0.97869 -0.77769,1e-5 -1.44992,0.337773 -2.0167,1.01329 -0.56678,0.675535 -0.85018,1.652576 -0.85017,2.931127 z" style="font-family:Arial;-inkscape-font-specification:Arial" id="path4511" inkscape:connector-curvature="0"/>
  </g>
  <g style="font-size:20.2460289px;font-style:normal;font-variant:normal;font-weight:normal;font-stretch:normal;text-align:center;line-height:125%;writing-mode:lr-tb;text-anchor:middle;fill:#000000;fill-opacity:1;stroke:none;font-family:Arial;-inkscape-font-specification:Arial" id="text3267" transform="translate(-65.687496,170.76444)">
    <path d="m 169.69998,-50.416479 c -0.65905,0.560194 -1.29339,0.955624 -1.903,1.186291 -0.60963,0.230668 -1.26374,0.346001 -1.96233,0.346001 -1.15334,0 -2.03976,-0.281744 -2.65926,-0.845232 -0.61951,-0.563487 -0.92927,-1.283499 -0.92927,-2.160037 0,-0.514057 0.11699,-0.983629 0.35095,-1.408721 0.23396,-0.425083 0.54042,-0.766141 0.91937,-1.023176 0.37896,-0.257024 0.80569,-0.451443 1.28021,-0.583259 0.34929,-0.09226 0.87653,-0.181233 1.58172,-0.266916 1.43672,-0.171346 2.4945,-0.375652 3.17333,-0.612916 0.007,-0.243842 0.01,-0.398719 0.01,-0.464631 0,-0.724948 -0.16806,-1.235711 -0.50417,-1.532292 -0.45475,-0.402012 -1.13028,-0.603022 -2.02658,-0.603031 -0.837,9e-6 -1.45486,0.146647 -1.85358,0.439916 -0.39873,0.293286 -0.69365,0.812287 -0.88477,1.557006 l -1.7399,-0.237258 c 0.15817,-0.744718 0.4185,-1.346101 0.78098,-1.80415 0.36247,-0.458031 0.88642,-0.810622 1.57183,-1.057776 0.68541,-0.247133 1.47957,-0.370705 2.38247,-0.370716 0.8963,1.1e-5 1.62455,0.105459 2.18475,0.316344 0.56019,0.210907 0.97209,0.476174 1.23572,0.795804 0.26361,0.319648 0.44815,0.723316 0.5536,1.211005 0.0593,0.303171 0.089,0.850182 0.089,1.641035 l 0,2.372582 c -10e-6,1.654219 0.0379,2.700461 0.11368,3.138727 0.0758,0.43827 0.22572,0.858414 0.4498,1.260434 l -1.85852,0 c -0.18454,-0.369068 -0.30317,-0.800745 -0.35589,-1.295034 z m -0.14828,-3.974074 c -0.64588,0.263625 -1.61468,0.487702 -2.90641,0.672232 -0.73155,0.105452 -1.24891,0.224081 -1.55207,0.355887 -0.30316,0.131814 -0.53713,0.324586 -0.70189,0.578317 -0.16476,0.253737 -0.24714,0.535481 -0.24714,0.845232 0,0.474518 0.17959,0.869948 0.53877,1.186291 0.35918,0.316345 0.88477,0.474517 1.57678,0.474516 0.68541,10e-7 1.29503,-0.149933 1.82887,-0.449802 0.53382,-0.299866 0.92596,-0.710125 1.1764,-1.230777 0.19112,-0.402017 0.28668,-0.995162 0.28669,-1.779436 z" style="font-family:Arial;-inkscape-font-specification:Arial" id="path4508" inkscape:connector-curvature="0"/>
  </g>
  <g style="font-size:20.2460289px;font-style:normal;font-variant:normal;font-weight:normal;font-stretch:normal;text-align:center;line-height:125%;writing-mode:lr-tb;text-anchor:middle;fill:#000000;fill-opacity:1;stroke:none;font-family:Arial;-inkscape-font-specification:Arial" id="text3273" transform="translate(-114.1875,147.26444)">
    <path d="m 202.6239,-53.502893 1.74978,0.227373 c -0.19114,1.206065 -0.68048,2.150153 -1.46804,2.832269 -0.78757,0.682117 -1.75473,1.023176 -2.90147,1.023176 -1.43673,0 -2.59172,-0.469573 -3.46495,-1.40872 -0.87325,-0.939145 -1.30987,-2.285254 -1.30987,-4.038332 0,-1.13356 0.18783,-2.12543 0.56349,-2.975613 0.37566,-0.850166 0.94738,-1.487796 1.71518,-1.912893 0.76779,-0.425077 1.60314,-0.637621 2.50604,-0.637632 1.14015,1.1e-5 2.07271,0.288345 2.79767,0.865004 0.72494,0.576678 1.18957,1.395548 1.39389,2.45661 l -1.73001,0.266916 c -0.16477,-0.705176 -0.4564,-1.235711 -0.87489,-1.591607 -0.4185,-0.355878 -0.92432,-0.533822 -1.51746,-0.533831 -0.89631,9e-6 -1.62456,0.321296 -2.18475,0.963861 -0.5602,0.642582 -0.84029,1.659167 -0.84029,3.049756 0,1.410372 0.27021,2.435194 0.81063,3.07447 0.54042,0.639281 1.2456,0.95892 2.11555,0.958919 0.69859,10e-7 1.28185,-0.21419 1.74978,-0.642574 0.46792,-0.428381 0.76449,-1.087431 0.88972,-1.977152 z" style="font-family:Arial;-inkscape-font-specification:Arial" id="path4505" inkscape:connector-curvature="0"/>
  </g>
  <path style="fill:none;stroke:#000000;stroke-width:1.54;stroke-linecap:butt;stroke-linejoin:miter;stroke-miterlimit:4;stroke-opacity:1;stroke-dasharray:none" d="M 175.60996,131.52304 C 135.18547,158.55618 59.544548,162.55247 27.135685,140.52094 42.945932,90.395567 58.37551,61.874398 107.36289,29.512709 162.40926,56.608274 175.60996,131.52304 175.60996,131.52304 z" id="path4420" inkscape:connector-curvature="0" sodipodi:nodetypes="cccc"/>
  <path style="fill:none;stroke:#000000;stroke-width:1px;stroke-linecap:butt;stroke-linejoin:miter;stroke-opacity:1" d="M 27.437505,140.38944 101.81251,99.764443 175.34283,131.47155" id="path4440" inkscape:connector-curvature="0" sodipodi:nodetypes="ccc"/>
  <path style="fill:none;stroke:#000000;stroke-width:1px;stroke-linecap:butt;stroke-linejoin:miter;stroke-opacity:1" d="m 101.81251,99.764443 5.7071,-70.11612" id="path4442" inkscape:connector-curvature="0" sodipodi:nodetypes="cc"/>
  <path inkscape:connector-curvature="0" id="path3233" style="fill:#ff0000;fill-opacity:1;stroke:none" d="m 104.10538,99.892112 a 2.2290093,2.2290093 0 0 1 -4.457997,0 2.2290093,2.2290093 0 1 1 4.457997,0 z"/>
  <path style="fill:none;stroke:#000000;stroke-width:0.875;stroke-linecap:butt;stroke-linejoin:miter;stroke-miterlimit:4;stroke-opacity:1;stroke-dasharray:none" d="m 114.93549,105.60325 c -7.14482,4.77797 -21.574625,5.92624 -27.302725,2.03228 2.79438,-8.859402 6.493752,-14.077148 15.152005,-19.79691 9.72917,4.789002 12.15072,17.76463 12.15072,17.76463 z" id="path4420-1" inkscape:connector-curvature="0" sodipodi:nodetypes="cccc"/>
  <g style="font-size:20.2460289px;font-style:normal;font-variant:normal;font-weight:normal;font-stretch:normal;text-align:center;line-height:125%;writing-mode:lr-tb;text-anchor:middle;fill:#000000;fill-opacity:1;stroke:none;font-family:Arial;-inkscape-font-specification:Arial" id="text3263-7" transform="translate(-137.6875,148.76444)">
    <path d="m 251.21202,-53.150188 -1.65092,0 0,-14.492519 1.77944,0 0,5.17025 c 0.75131,-0.942431 1.71023,-1.413652 2.87675,-1.413663 0.64587,1.1e-5 1.25714,0.130173 1.83381,0.390488 0.57666,0.260335 1.05118,0.626107 1.42355,1.097319 0.37235,0.471229 0.66398,1.03966 0.87489,1.705292 0.21089,0.665648 0.31633,1.377422 0.31634,2.135324 -1e-5,1.799211 -0.44487,3.189806 -1.33457,4.171789 -0.88973,0.981985 -1.95739,1.472977 -3.20299,1.472978 -1.23902,-10e-7 -2.21112,-0.517355 -2.9163,-1.552064 z m -0.0198,-5.328423 c 0,1.25879 0.17135,2.168279 0.51406,2.728469 0.56019,0.916081 1.3181,1.374121 2.27373,1.37412 0.77767,10e-7 1.4499,-0.337762 2.01669,-1.01329 0.56677,-0.675524 0.85017,-1.682223 0.85017,-3.020099 0,-1.370818 -0.27186,-2.382459 -0.81557,-3.034927 -0.54372,-0.652451 -1.20113,-0.978681 -1.97221,-0.97869 -0.77768,9e-6 -1.44991,0.337772 -2.01669,1.01329 -0.56679,0.675534 -0.85018,1.652576 -0.85018,2.931127 z" style="font-family:Arial;-inkscape-font-specification:Arial" id="path4502" inkscape:connector-curvature="0"/>
  </g>
  <g style="font-size:20.2460289px;font-style:normal;font-variant:normal;font-weight:normal;font-stretch:normal;text-align:center;line-height:125%;writing-mode:lr-tb;text-anchor:middle;fill:#000000;fill-opacity:1;stroke:none;font-family:Arial;-inkscape-font-specification:Arial" id="text3267-0" transform="translate(-133.6875,218.26444)">
    <path d="m 238.0723,-52.531736 c -0.65906,0.560194 -1.29339,0.955623 -1.90301,1.186291 -0.60963,0.230667 -1.26373,0.346001 -1.96232,0.346001 -1.15334,0 -2.03976,-0.281744 -2.65927,-0.845232 -0.61951,-0.563487 -0.92926,-1.283499 -0.92926,-2.160038 0,-0.514056 0.11698,-0.983629 0.35094,-1.40872 0.23397,-0.425083 0.54042,-0.766141 0.91938,-1.023176 0.37895,-0.257024 0.80569,-0.451444 1.2802,-0.583259 0.3493,-0.09226 0.87654,-0.181233 1.58173,-0.266916 1.43672,-0.171347 2.49449,-0.375652 3.17332,-0.612917 0.007,-0.243841 0.01,-0.398718 0.01,-0.46463 -1e-5,-0.724948 -0.16807,-1.235711 -0.50417,-1.532292 -0.45476,-0.402012 -1.13028,-0.603022 -2.02658,-0.603032 -0.837,1e-5 -1.45486,0.146648 -1.85358,0.439917 -0.39873,0.293286 -0.69366,0.812287 -0.88478,1.557006 l -1.73989,-0.237258 c 0.15817,-0.744719 0.41849,-1.346102 0.78097,-1.804151 0.36248,-0.45803 0.88642,-0.810621 1.57184,-1.057775 0.68541,-0.247134 1.47956,-0.370706 2.38246,-0.370716 0.89631,1e-5 1.62456,0.105458 2.18476,0.316344 0.56018,0.210906 0.97209,0.476174 1.23572,0.795803 0.26361,0.319649 0.44814,0.723317 0.5536,1.211005 0.0593,0.303172 0.089,0.850183 0.089,1.641036 l 0,2.372581 c -1e-5,1.65422 0.0379,2.700461 0.11369,3.138728 0.0758,0.438269 0.22571,0.858414 0.4498,1.260434 l -1.85852,0 c -0.18455,-0.369068 -0.30317,-0.800745 -0.35589,-1.295034 z m -0.14829,-3.974074 c -0.64587,0.263625 -1.61468,0.487702 -2.90641,0.672231 -0.73155,0.105453 -1.2489,0.224082 -1.55206,0.355888 -0.30317,0.131814 -0.53713,0.324586 -0.70189,0.578316 -0.16477,0.253738 -0.24715,0.535482 -0.24715,0.845232 0,0.474519 0.17959,0.869949 0.53878,1.186291 0.35918,0.316346 0.88477,0.474518 1.57678,0.474517 0.6854,10e-7 1.29502,-0.149933 1.82886,-0.449802 0.53382,-0.299866 0.92596,-0.710125 1.17641,-1.230777 0.19111,-0.402018 0.28668,-0.995162 0.28668,-1.779436 z" style="font-family:Arial;-inkscape-font-specification:Arial" id="path4499" inkscape:connector-curvature="0"/>
  </g>
  <g style="font-size:20.2460289px;font-style:normal;font-variant:normal;font-weight:normal;font-stretch:normal;text-align:center;line-height:125%;writing-mode:lr-tb;text-anchor:middle;fill:#000000;fill-opacity:1;stroke:none;font-family:Arial;-inkscape-font-specification:Arial" id="text3273-4" transform="translate(-220.6875,132.26444)">
    <path d="m 270.99621,-55.61815 1.74978,0.227373 c -0.19113,1.206064 -0.68048,2.150153 -1.46803,2.832269 -0.78758,0.682117 -1.75473,1.023175 -2.90147,1.023176 -1.43674,-1e-6 -2.59172,-0.469574 -3.46496,-1.408721 -0.87324,-0.939144 -1.30986,-2.285254 -1.30986,-4.038331 0,-1.133561 0.18783,-2.12543 0.56349,-2.975613 0.37565,-0.850166 0.94738,-1.487797 1.71517,-1.912894 0.76779,-0.425077 1.60314,-0.63762 2.50604,-0.637631 1.14015,1.1e-5 2.07271,0.288345 2.79767,0.865004 0.72495,0.576678 1.18958,1.395547 1.39389,2.45661 l -1.73,0.266916 c -0.16477,-0.705177 -0.4564,-1.235712 -0.87489,-1.591607 -0.41851,-0.355878 -0.92433,-0.533822 -1.51747,-0.533831 -0.89631,9e-6 -1.62456,0.321296 -2.18475,0.963861 -0.56019,0.642582 -0.84029,1.659166 -0.84029,3.049756 0,1.410372 0.27021,2.435194 0.81063,3.07447 0.54042,0.639281 1.24561,0.95892 2.11556,0.958919 0.69858,10e-7 1.28184,-0.21419 1.74978,-0.642575 0.46791,-0.42838 0.76449,-1.08743 0.88971,-1.977151 z" style="font-family:Arial;-inkscape-font-specification:Arial" id="path4496" inkscape:connector-curvature="0"/>
  </g>
  <path style="fill:none;stroke:#000000;stroke-width:1.5;stroke-linecap:butt;stroke-linejoin:miter;stroke-miterlimit:4;stroke-opacity:1;stroke-dasharray:none" d="m 93.556449,39.022304 c 5.879107,6.404737 20.581181,7.571588 28.085121,-1.006839" id="path3034" inkscape:connector-curvature="0" sodipodi:nodetypes="cc"/>
  <path style="fill:none;stroke:#000000;stroke-width:1.5;stroke-linecap:butt;stroke-linejoin:miter;stroke-miterlimit:4;stroke-opacity:1;stroke-dasharray:none" d="m 33.236278,119.6934 c 12.104427,8.38928 17.557793,15.16409 17.752195,29.78978" id="path3036" inkscape:connector-curvature="0" sodipodi:nodetypes="cc"/>
  <path style="fill:none;stroke:#000000;stroke-width:1.5;stroke-linecap:butt;stroke-linejoin:miter;stroke-miterlimit:4;stroke-opacity:1;stroke-dasharray:none" d="m 170.90294,117.46121 c -9.90663,2.2143 -16.36866,14.27393 -15.80588,26.01765" id="path3038" inkscape:connector-curvature="0" sodipodi:nodetypes="cc"/>
</svg>